G04 ================== begin FILE IDENTIFICATION RECORD ==================*
G04 Layout Name:  megaHeatv2.brd*
G04 Film Name:    Silkscreen_Top*
G04 File Format:  Gerber RS274X*
G04 File Origin:  Cadence Allegro 16.6-P004*
G04 Origin Date:  Sun Mar 29 22:17:26 2015*
G04 *
G04 Layer:  USER PART NUMBER/SILKSCREEN_TOP*
G04 Layer:  TOLERANCE/SILKSCREEN_TOP*
G04 Layer:  REF DES/SILKSCREEN_TOP*
G04 Layer:  PACKAGE GEOMETRY/SILKSCREEN_TOP*
G04 Layer:  DEVICE TYPE/SILKSCREEN_TOP*
G04 Layer:  COMPONENT VALUE/SILKSCREEN_TOP*
G04 Layer:  BOARD GEOMETRY/SILKSCREEN_TOP*
G04 *
G04 Offset:    (0.00 0.00)*
G04 Mirror:    No*
G04 Mode:      Positive*
G04 Rotation:  0*
G04 FullContactRelief:  No*
G04 UndefLineWidth:     10.00*
G04 ================== end FILE IDENTIFICATION RECORD ====================*
%FSLAX25Y25*MOIN*%
%IR0*IPPOS*OFA0.00000B0.00000*MIA0B0*SFA1.00000B1.00000*%
%ADD10C,.01*%
%ADD11C,.005*%
%ADD12C,.006*%
%ADD13C,.008*%
%ADD14C,.0079*%
%ADD15C,.00787*%
G75*
%LPD*%
G75*
G36*
G01X-159150Y148300D02*
X-189150D01*
Y123300D01*
X-159150D01*
Y148300D01*
G37*
G36*
G01X71125Y2875D02*
Y32875D01*
X46125D01*
Y2875D01*
X71125D01*
G37*
G36*
G01X272352Y-120990D02*
Y-92250D01*
X239675D01*
Y-120990D01*
X272352D01*
G37*
G36*
G01Y-92140D02*
Y-63400D01*
X239675D01*
Y-92140D01*
X272352D01*
G37*
G36*
G01Y-63190D02*
Y-34450D01*
X239675D01*
Y-63190D01*
X272352D01*
G37*
G36*
G01X272227Y-34240D02*
Y-5500D01*
X239550D01*
Y-34240D01*
X272227D01*
G37*
G36*
G01X274377Y22810D02*
Y51550D01*
X241700D01*
Y22810D01*
X274377D01*
G37*
G36*
G01X274427Y55410D02*
Y84150D01*
X241750D01*
Y55410D01*
X274427D01*
G37*
G36*
G01X273602Y88485D02*
Y117225D01*
X240925D01*
Y88485D01*
X273602D01*
G37*
G54D10*
G01X-253900Y-76993D02*
X-250317D01*
X-249567Y-76740D01*
X-249067Y-76233D01*
X-248900Y-75600D01*
X-249067Y-74967D01*
X-249567Y-74460D01*
X-250317Y-74207D01*
X-253900D01*
G01X-248900Y-70500D02*
X-253900D01*
X-252900Y-71260D01*
G01X-248900D02*
Y-69740D01*
G01X-250983Y-66603D02*
X-251567Y-66160D01*
X-251900Y-65780D01*
X-252067Y-65273D01*
X-251900Y-64830D01*
X-251567Y-64513D01*
X-251067Y-64260D01*
X-250483Y-64197D01*
X-249983Y-64260D01*
X-249483Y-64513D01*
X-249067Y-64893D01*
X-248900Y-65337D01*
X-249067Y-65843D01*
X-249567Y-66287D01*
X-250317Y-66540D01*
X-251150Y-66603D01*
X-252233Y-66477D01*
X-252817Y-66287D01*
X-253400Y-65970D01*
X-253817Y-65527D01*
X-253900Y-65083D01*
X-253733Y-64640D01*
X-253317Y-64323D01*
G01X-271525Y35967D02*
X-266525D01*
Y34633D01*
X-266775Y34207D01*
X-267108Y33940D01*
X-267775Y33833D01*
X-268442Y33940D01*
X-268858Y34260D01*
X-269108Y34633D01*
Y35967D01*
G01Y34633D02*
X-271525Y33833D01*
G01X-270525Y31673D02*
X-271108Y31353D01*
X-271442Y30927D01*
X-271525Y30447D01*
X-271442Y30020D01*
X-271025Y29593D01*
X-270525Y29327D01*
X-270025Y29273D01*
X-269442Y29380D01*
X-269025Y29753D01*
X-268858Y30127D01*
Y30607D01*
G01Y30127D02*
X-268608Y29807D01*
X-268192Y29540D01*
X-267692Y29433D01*
X-267192Y29540D01*
X-266775Y29807D01*
X-266525Y30287D01*
X-266608Y30767D01*
X-266942Y31247D01*
G01X-266525Y26100D02*
X-266692Y26527D01*
X-267108Y26847D01*
X-267608Y27060D01*
X-268275Y27220D01*
X-269025Y27273D01*
X-269775Y27220D01*
X-270442Y27060D01*
X-270942Y26847D01*
X-271358Y26527D01*
X-271525Y26100D01*
X-271358Y25673D01*
X-270942Y25353D01*
X-270442Y25140D01*
X-269775Y24980D01*
X-269025Y24927D01*
X-268275Y24980D01*
X-267608Y25140D01*
X-267108Y25353D01*
X-266692Y25673D01*
X-266525Y26100D01*
G01X-259175Y35225D02*
X-264175D01*
Y26225D01*
X-260675D01*
G01X-273600Y51979D02*
X-268600D01*
Y49572D01*
G01X-271017Y50459D02*
Y51979D01*
G01X-269433Y46881D02*
X-268933Y46501D01*
X-268683Y46057D01*
X-268600Y45551D01*
X-268767Y44918D01*
X-269183Y44474D01*
X-269683Y44348D01*
X-270183Y44411D01*
X-270600Y44664D01*
X-271433Y45931D01*
X-272017Y46501D01*
X-272850Y46881D01*
X-273600Y47007D01*
Y44348D01*
G01X-264270Y41512D02*
X-246830D01*
Y54938D01*
X-264270D01*
Y41512D01*
G01X-270000Y70767D02*
X-265000D01*
Y69433D01*
X-265250Y69007D01*
X-265583Y68740D01*
X-266250Y68633D01*
X-266917Y68740D01*
X-267333Y69060D01*
X-267583Y69433D01*
Y70767D01*
G01Y69433D02*
X-270000Y68633D01*
G01X-265000Y66633D02*
X-270000Y65300D01*
X-265000Y63967D01*
G01X-270000Y60900D02*
X-265000D01*
X-266000Y61540D01*
G01X-270000D02*
Y60260D01*
G01X-259025Y68150D02*
X-261525D01*
Y63150D01*
X-260525D01*
G01X-260188Y102317D02*
X-260348Y102442D01*
X-260535Y102525D01*
X-260748D01*
X-260988Y102400D01*
X-261175Y102192D01*
X-261308Y101942D01*
X-261415Y101525D01*
X-261442Y101150D01*
X-261388Y100775D01*
X-261308Y100525D01*
X-261148Y100275D01*
X-260962Y100108D01*
X-260775Y100025D01*
X-260588D01*
X-260402Y100108D01*
X-260242Y100233D01*
X-260108Y100400D01*
G01X-259188Y100025D02*
Y102525D01*
X-257962Y100025D01*
Y102525D01*
G01X-256055Y100025D02*
Y102525D01*
X-257042Y100733D01*
X-255708D01*
G01X-271625Y139892D02*
X-266625D01*
Y138558D01*
X-266875Y138132D01*
X-267208Y137865D01*
X-267875Y137758D01*
X-268542Y137865D01*
X-268958Y138185D01*
X-269208Y138558D01*
Y139892D01*
G01Y138558D02*
X-271625Y137758D01*
G01X-266625Y135758D02*
X-271625Y134425D01*
X-266625Y133092D01*
G01X-267458Y131038D02*
X-266958Y130718D01*
X-266708Y130345D01*
X-266625Y129918D01*
X-266792Y129385D01*
X-267208Y129012D01*
X-267708Y128905D01*
X-268208Y128958D01*
X-268625Y129172D01*
X-269458Y130238D01*
X-270042Y130718D01*
X-270875Y131038D01*
X-271625Y131145D01*
Y128905D01*
G01X-259650Y136275D02*
X-262150D01*
Y131275D01*
X-261150D01*
G01X-234367Y-47684D02*
Y-45434D01*
X-235633Y-42684D01*
G01X-233100D02*
X-234367Y-45434D01*
G01X-230472Y-43517D02*
X-230092Y-43017D01*
X-229648Y-42767D01*
X-229142Y-42684D01*
X-228509Y-42851D01*
X-228065Y-43267D01*
X-227939Y-43767D01*
X-228002Y-44267D01*
X-228255Y-44684D01*
X-229522Y-45517D01*
X-230092Y-46101D01*
X-230472Y-46934D01*
X-230598Y-47684D01*
X-227939D01*
G01X-237565Y-50755D02*
X-233235D01*
Y-48195D01*
X-237565D01*
Y-50755D01*
G01X-236225Y-18225D02*
Y21775D01*
X-222725D01*
Y-18225D01*
X-236225D01*
G01X-234475Y21775D02*
Y-18225D01*
G01X-231725Y19275D02*
G03I-1000J0D01*
G01X-250675Y26225D02*
X-247175D01*
Y35225D01*
X-252175D01*
G01X-236762Y25275D02*
Y23483D01*
X-236655Y23108D01*
X-236442Y22858D01*
X-236175Y22775D01*
X-235908Y22858D01*
X-235695Y23108D01*
X-235588Y23483D01*
Y25275D01*
G01X-234562Y23275D02*
X-234402Y22983D01*
X-234188Y22817D01*
X-233948Y22775D01*
X-233735Y22817D01*
X-233522Y23025D01*
X-233388Y23275D01*
X-233362Y23525D01*
X-233415Y23817D01*
X-233602Y24025D01*
X-233788Y24108D01*
X-234028D01*
G01X-233788D02*
X-233628Y24233D01*
X-233495Y24442D01*
X-233442Y24692D01*
X-233495Y24942D01*
X-233628Y25150D01*
X-233868Y25275D01*
X-234108Y25233D01*
X-234348Y25067D01*
G01X-250525Y63150D02*
X-249525D01*
Y68150D01*
X-252025D01*
G01X-230350Y74250D02*
X-235350D01*
Y65250D01*
X-231850D01*
G01X-231825Y56550D02*
X-235325D01*
Y47550D01*
X-230325D01*
G01X-230050Y92825D02*
X-235050D01*
Y83825D01*
X-231550D01*
G01X-230200Y109950D02*
X-235200D01*
Y100950D01*
X-231700D01*
G01X-230475Y128050D02*
X-237475D01*
Y118050D01*
X-230475D01*
G01X-251150Y131275D02*
X-250150D01*
Y136275D01*
X-252650D01*
G01X-229900Y143550D02*
X-234900D01*
Y134550D01*
X-231400D01*
G01X-206443Y-113875D02*
Y-108875D01*
X-205177D01*
X-204671Y-109125D01*
X-204291Y-109458D01*
X-203974Y-109958D01*
X-203721Y-110542D01*
X-203658Y-111375D01*
X-203721Y-112208D01*
X-203974Y-112792D01*
X-204291Y-113292D01*
X-204671Y-113625D01*
X-205177Y-113875D01*
X-206443D01*
G01X-201345Y-113125D02*
X-200966Y-113542D01*
X-200522Y-113792D01*
X-199953Y-113875D01*
X-199383Y-113708D01*
X-198939Y-113375D01*
X-198623Y-112792D01*
X-198560Y-112125D01*
X-198686Y-111458D01*
X-199003Y-111042D01*
X-199446Y-110708D01*
X-199889Y-110625D01*
X-200332Y-110708D01*
X-200902Y-111042D01*
X-200712Y-108875D01*
X-199003D01*
G01X-198799Y-102483D02*
X-206201D01*
Y-113467D01*
X-198799D01*
Y-102483D01*
G01X-224452Y-84292D02*
X-224772Y-84042D01*
X-225145Y-83875D01*
X-225572D01*
X-226052Y-84125D01*
X-226425Y-84542D01*
X-226692Y-85042D01*
X-226905Y-85875D01*
X-226958Y-86625D01*
X-226852Y-87375D01*
X-226692Y-87875D01*
X-226372Y-88375D01*
X-225998Y-88708D01*
X-225625Y-88875D01*
X-225252D01*
X-224878Y-88708D01*
X-224558Y-88458D01*
X-224292Y-88125D01*
G01X-222238Y-84708D02*
X-221918Y-84208D01*
X-221545Y-83958D01*
X-221118Y-83875D01*
X-220585Y-84042D01*
X-220212Y-84458D01*
X-220105Y-84958D01*
X-220158Y-85458D01*
X-220372Y-85875D01*
X-221438Y-86708D01*
X-221918Y-87292D01*
X-222238Y-88125D01*
X-222345Y-88875D01*
X-220105D01*
G01X-217838Y-86792D02*
X-217465Y-86208D01*
X-217145Y-85875D01*
X-216718Y-85708D01*
X-216345Y-85875D01*
X-216078Y-86208D01*
X-215865Y-86708D01*
X-215812Y-87292D01*
X-215865Y-87792D01*
X-216078Y-88292D01*
X-216398Y-88708D01*
X-216772Y-88875D01*
X-217198Y-88708D01*
X-217572Y-88208D01*
X-217785Y-87458D01*
X-217838Y-86625D01*
X-217732Y-85542D01*
X-217572Y-84958D01*
X-217305Y-84375D01*
X-216932Y-83958D01*
X-216558Y-83875D01*
X-216185Y-84042D01*
X-215918Y-84458D01*
G01X-226675Y-77900D02*
Y-81400D01*
X-217675D01*
Y-76400D01*
G01X-213875Y-58138D02*
X-211375D01*
Y-58672D01*
X-211500Y-58885D01*
X-211667Y-59045D01*
X-211917Y-59178D01*
X-212208Y-59285D01*
X-212625Y-59312D01*
X-213042Y-59285D01*
X-213333Y-59178D01*
X-213583Y-59045D01*
X-213750Y-58885D01*
X-213875Y-58672D01*
Y-58138D01*
G01X-213542Y-60365D02*
X-213750Y-60578D01*
X-213875Y-60818D01*
Y-61032D01*
X-213750Y-61245D01*
X-213542Y-61405D01*
X-213250Y-61485D01*
X-212958Y-61432D01*
X-212708Y-61298D01*
X-212542Y-61058D01*
X-212458Y-60738D01*
X-212292Y-60552D01*
X-212000Y-60472D01*
X-211708Y-60525D01*
X-211500Y-60658D01*
X-211375Y-60845D01*
Y-61032D01*
X-211458Y-61218D01*
X-211667Y-61378D01*
G01X-213875Y-63125D02*
X-211375D01*
X-211875Y-62805D01*
G01X-213875D02*
Y-63445D01*
G01X-213375Y-64738D02*
X-213667Y-64898D01*
X-213833Y-65112D01*
X-213875Y-65352D01*
X-213833Y-65565D01*
X-213625Y-65778D01*
X-213375Y-65912D01*
X-213125Y-65938D01*
X-212833Y-65885D01*
X-212625Y-65698D01*
X-212542Y-65512D01*
Y-65272D01*
G01Y-65512D02*
X-212417Y-65672D01*
X-212208Y-65805D01*
X-211958Y-65858D01*
X-211708Y-65805D01*
X-211500Y-65672D01*
X-211375Y-65432D01*
X-211417Y-65192D01*
X-211583Y-64952D01*
G01X-211375Y-67525D02*
X-211458Y-67312D01*
X-211667Y-67152D01*
X-211917Y-67045D01*
X-212250Y-66965D01*
X-212625Y-66938D01*
X-213000Y-66965D01*
X-213333Y-67045D01*
X-213583Y-67152D01*
X-213792Y-67312D01*
X-213875Y-67525D01*
X-213792Y-67738D01*
X-213583Y-67898D01*
X-213333Y-68005D01*
X-213000Y-68085D01*
X-212625Y-68112D01*
X-212250Y-68085D01*
X-211917Y-68005D01*
X-211667Y-67898D01*
X-211458Y-67738D01*
X-211375Y-67525D01*
G01X-213875Y-69672D02*
X-213333Y-69725D01*
X-212875Y-69805D01*
X-212458Y-69912D01*
X-212000Y-70045D01*
X-211375Y-70258D01*
Y-69192D01*
G01X-214708Y-71125D02*
Y-72725D01*
G01X-213542Y-73565D02*
X-213750Y-73778D01*
X-213875Y-74018D01*
Y-74232D01*
X-213750Y-74445D01*
X-213542Y-74605D01*
X-213250Y-74685D01*
X-212958Y-74632D01*
X-212708Y-74498D01*
X-212542Y-74258D01*
X-212458Y-73938D01*
X-212292Y-73752D01*
X-212000Y-73672D01*
X-211708Y-73725D01*
X-211500Y-73858D01*
X-211375Y-74045D01*
Y-74232D01*
X-211458Y-74418D01*
X-211667Y-74578D01*
G01X-213875Y-76325D02*
X-213833Y-76112D01*
X-213667Y-75925D01*
X-213417Y-75765D01*
X-213125Y-75658D01*
X-212792Y-75605D01*
X-212458D01*
X-212125Y-75658D01*
X-211833Y-75765D01*
X-211583Y-75925D01*
X-211417Y-76112D01*
X-211375Y-76325D01*
X-211417Y-76538D01*
X-211583Y-76725D01*
X-211833Y-76885D01*
X-212125Y-76992D01*
X-212458Y-77045D01*
X-212792D01*
X-213125Y-76992D01*
X-213417Y-76885D01*
X-213667Y-76725D01*
X-213833Y-76538D01*
X-213875Y-76325D01*
G01X-211375Y-78205D02*
Y-78845D01*
G01Y-78525D02*
X-213875D01*
G01Y-78205D02*
Y-78845D01*
G01X-211583Y-81312D02*
X-211458Y-81152D01*
X-211375Y-80965D01*
Y-80752D01*
X-211500Y-80512D01*
X-211708Y-80325D01*
X-211958Y-80192D01*
X-212375Y-80085D01*
X-212750Y-80058D01*
X-213125Y-80112D01*
X-213375Y-80192D01*
X-213625Y-80352D01*
X-213792Y-80538D01*
X-213875Y-80725D01*
Y-80912D01*
X-213792Y-81098D01*
X-213667Y-81258D01*
X-213500Y-81392D01*
G01X-213875Y-82925D02*
X-213833Y-83112D01*
X-213708Y-83325D01*
X-213500Y-83458D01*
X-213208Y-83512D01*
X-212917Y-83458D01*
X-212667Y-83298D01*
X-212542Y-83058D01*
Y-82792D01*
X-212458Y-82632D01*
X-212250Y-82498D01*
X-211958Y-82445D01*
X-211667Y-82525D01*
X-211458Y-82712D01*
X-211375Y-82925D01*
X-211458Y-83138D01*
X-211667Y-83325D01*
X-211958Y-83405D01*
X-212250Y-83352D01*
X-212458Y-83218D01*
X-212542Y-83058D01*
Y-82792D01*
X-212667Y-82552D01*
X-212917Y-82392D01*
X-213208Y-82338D01*
X-213500Y-82392D01*
X-213708Y-82525D01*
X-213833Y-82738D01*
X-213875Y-82925D01*
G01X-214708Y-84325D02*
Y-85925D01*
G01X-213875Y-86738D02*
X-211375D01*
Y-87272D01*
X-211500Y-87485D01*
X-211667Y-87645D01*
X-211917Y-87778D01*
X-212208Y-87885D01*
X-212625Y-87912D01*
X-213042Y-87885D01*
X-213333Y-87778D01*
X-213583Y-87645D01*
X-213750Y-87485D01*
X-213875Y-87272D01*
Y-86738D01*
G01X-213542Y-88965D02*
X-213750Y-89178D01*
X-213875Y-89418D01*
Y-89632D01*
X-213750Y-89845D01*
X-213542Y-90005D01*
X-213250Y-90085D01*
X-212958Y-90032D01*
X-212708Y-89898D01*
X-212542Y-89658D01*
X-212458Y-89338D01*
X-212292Y-89152D01*
X-212000Y-89072D01*
X-211708Y-89125D01*
X-211500Y-89258D01*
X-211375Y-89445D01*
Y-89632D01*
X-211458Y-89818D01*
X-211667Y-89978D01*
G01X-213875Y-91725D02*
X-211375D01*
X-211875Y-91405D01*
G01X-213875D02*
Y-92045D01*
G01X-213375Y-93338D02*
X-213667Y-93498D01*
X-213833Y-93712D01*
X-213875Y-93952D01*
X-213833Y-94165D01*
X-213625Y-94378D01*
X-213375Y-94512D01*
X-213125Y-94538D01*
X-212833Y-94485D01*
X-212625Y-94298D01*
X-212542Y-94112D01*
Y-93872D01*
G01Y-94112D02*
X-212417Y-94272D01*
X-212208Y-94405D01*
X-211958Y-94458D01*
X-211708Y-94405D01*
X-211500Y-94272D01*
X-211375Y-94032D01*
X-211417Y-93792D01*
X-211583Y-93552D01*
G01X-211375Y-96125D02*
X-211458Y-95912D01*
X-211667Y-95752D01*
X-211917Y-95645D01*
X-212250Y-95565D01*
X-212625Y-95538D01*
X-213000Y-95565D01*
X-213333Y-95645D01*
X-213583Y-95752D01*
X-213792Y-95912D01*
X-213875Y-96125D01*
X-213792Y-96338D01*
X-213583Y-96498D01*
X-213333Y-96605D01*
X-213000Y-96685D01*
X-212625Y-96712D01*
X-212250Y-96685D01*
X-211917Y-96605D01*
X-211667Y-96498D01*
X-211458Y-96338D01*
X-211375Y-96125D01*
G01X-213875Y-98272D02*
X-213333Y-98325D01*
X-212875Y-98405D01*
X-212458Y-98512D01*
X-212000Y-98645D01*
X-211375Y-98858D01*
Y-97792D01*
G01X-217675Y-69400D02*
Y-64400D01*
X-226675D01*
Y-67900D01*
G01X-202675Y-41438D02*
X-200175D01*
Y-41972D01*
X-200300Y-42185D01*
X-200467Y-42345D01*
X-200717Y-42478D01*
X-201008Y-42585D01*
X-201425Y-42612D01*
X-201842Y-42585D01*
X-202133Y-42478D01*
X-202383Y-42345D01*
X-202550Y-42185D01*
X-202675Y-41972D01*
Y-41438D01*
G01X-202342Y-43665D02*
X-202550Y-43878D01*
X-202675Y-44118D01*
Y-44332D01*
X-202550Y-44545D01*
X-202342Y-44705D01*
X-202050Y-44785D01*
X-201758Y-44732D01*
X-201508Y-44598D01*
X-201342Y-44358D01*
X-201258Y-44038D01*
X-201092Y-43852D01*
X-200800Y-43772D01*
X-200508Y-43825D01*
X-200300Y-43958D01*
X-200175Y-44145D01*
Y-44332D01*
X-200258Y-44518D01*
X-200467Y-44678D01*
G01X-202675Y-46425D02*
X-200175D01*
X-200675Y-46105D01*
G01X-202675D02*
Y-46745D01*
G01X-202175Y-48038D02*
X-202467Y-48198D01*
X-202633Y-48412D01*
X-202675Y-48652D01*
X-202633Y-48865D01*
X-202425Y-49078D01*
X-202175Y-49212D01*
X-201925Y-49238D01*
X-201633Y-49185D01*
X-201425Y-48998D01*
X-201342Y-48812D01*
Y-48572D01*
G01Y-48812D02*
X-201217Y-48972D01*
X-201008Y-49105D01*
X-200758Y-49158D01*
X-200508Y-49105D01*
X-200300Y-48972D01*
X-200175Y-48732D01*
X-200217Y-48492D01*
X-200383Y-48252D01*
G01X-200175Y-50825D02*
X-200258Y-50612D01*
X-200467Y-50452D01*
X-200717Y-50345D01*
X-201050Y-50265D01*
X-201425Y-50238D01*
X-201800Y-50265D01*
X-202133Y-50345D01*
X-202383Y-50452D01*
X-202592Y-50612D01*
X-202675Y-50825D01*
X-202592Y-51038D01*
X-202383Y-51198D01*
X-202133Y-51305D01*
X-201800Y-51385D01*
X-201425Y-51412D01*
X-201050Y-51385D01*
X-200717Y-51305D01*
X-200467Y-51198D01*
X-200258Y-51038D01*
X-200175Y-50825D01*
G01X-202675Y-52972D02*
X-202133Y-53025D01*
X-201675Y-53105D01*
X-201258Y-53212D01*
X-200800Y-53345D01*
X-200175Y-53558D01*
Y-52492D01*
G01X-200375Y-36138D02*
X-202167D01*
X-202542Y-36245D01*
X-202792Y-36458D01*
X-202875Y-36725D01*
X-202792Y-36992D01*
X-202542Y-37205D01*
X-202167Y-37312D01*
X-200375D01*
G01X-200792Y-38418D02*
X-200542Y-38578D01*
X-200417Y-38765D01*
X-200375Y-38978D01*
X-200458Y-39245D01*
X-200667Y-39432D01*
X-200917Y-39485D01*
X-201167Y-39458D01*
X-201375Y-39352D01*
X-201792Y-38818D01*
X-202083Y-38578D01*
X-202500Y-38418D01*
X-202875Y-38365D01*
Y-39485D01*
G01X-223875Y-36925D02*
X-203875D01*
Y-50425D01*
X-223875D01*
Y-36925D01*
G01X-205375Y-39925D02*
G03I-1000J0D01*
G01X-203875Y-38675D02*
X-223875D01*
G01X-224258Y6388D02*
X-224133Y6548D01*
X-224050Y6735D01*
Y6948D01*
X-224175Y7188D01*
X-224383Y7375D01*
X-224633Y7508D01*
X-225050Y7615D01*
X-225425Y7642D01*
X-225800Y7588D01*
X-226050Y7508D01*
X-226300Y7348D01*
X-226467Y7162D01*
X-226550Y6975D01*
Y6788D01*
X-226467Y6602D01*
X-226342Y6442D01*
X-226175Y6308D01*
G01X-226550Y5362D02*
X-224050D01*
Y4828D01*
X-224175Y4615D01*
X-224342Y4455D01*
X-224592Y4322D01*
X-224883Y4215D01*
X-225300Y4188D01*
X-225717Y4215D01*
X-226008Y4322D01*
X-226258Y4455D01*
X-226425Y4615D01*
X-226550Y4828D01*
Y5362D01*
G01Y2628D02*
X-226008Y2575D01*
X-225550Y2495D01*
X-225133Y2388D01*
X-224675Y2255D01*
X-224050Y2042D01*
Y3108D01*
G01X-226550Y55D02*
X-224050D01*
X-225842Y1042D01*
Y-292D01*
G01X-226550Y-1265D02*
X-224050D01*
G01Y-2385D02*
X-226550D01*
G01X-225300D02*
Y-1265D01*
G01X-224258Y-4612D02*
X-224133Y-4452D01*
X-224050Y-4265D01*
Y-4052D01*
X-224175Y-3812D01*
X-224383Y-3625D01*
X-224633Y-3492D01*
X-225050Y-3385D01*
X-225425Y-3358D01*
X-225800Y-3412D01*
X-226050Y-3492D01*
X-226300Y-3652D01*
X-226467Y-3838D01*
X-226550Y-4025D01*
Y-4212D01*
X-226467Y-4398D01*
X-226342Y-4558D01*
X-226175Y-4692D01*
G01X-226550Y-6545D02*
X-224050D01*
X-225842Y-5558D01*
Y-6892D01*
G01X-224050Y-8425D02*
X-224133Y-8212D01*
X-224342Y-8052D01*
X-224592Y-7945D01*
X-224925Y-7865D01*
X-225300Y-7838D01*
X-225675Y-7865D01*
X-226008Y-7945D01*
X-226258Y-8052D01*
X-226467Y-8212D01*
X-226550Y-8425D01*
X-226467Y-8638D01*
X-226258Y-8798D01*
X-226008Y-8905D01*
X-225675Y-8985D01*
X-225300Y-9012D01*
X-224925Y-8985D01*
X-224592Y-8905D01*
X-224342Y-8798D01*
X-224133Y-8638D01*
X-224050Y-8425D01*
G01X-226175Y-10038D02*
X-226383Y-10198D01*
X-226508Y-10385D01*
X-226550Y-10625D01*
X-226467Y-10865D01*
X-226300Y-11052D01*
X-226008Y-11185D01*
X-225675Y-11212D01*
X-225342Y-11158D01*
X-225133Y-11025D01*
X-224967Y-10838D01*
X-224925Y-10652D01*
X-224967Y-10465D01*
X-225133Y-10225D01*
X-224050Y-10305D01*
Y-11025D01*
G01Y-12825D02*
X-224133Y-12612D01*
X-224342Y-12452D01*
X-224592Y-12345D01*
X-224925Y-12265D01*
X-225300Y-12238D01*
X-225675Y-12265D01*
X-226008Y-12345D01*
X-226258Y-12452D01*
X-226467Y-12612D01*
X-226550Y-12825D01*
X-226467Y-13038D01*
X-226258Y-13198D01*
X-226008Y-13305D01*
X-225675Y-13385D01*
X-225300Y-13412D01*
X-224925Y-13385D01*
X-224592Y-13305D01*
X-224342Y-13198D01*
X-224133Y-13038D01*
X-224050Y-12825D01*
G01X-198400Y40250D02*
X-198483Y39743D01*
X-198817Y39300D01*
X-199317Y38920D01*
X-199900Y38667D01*
X-200567Y38540D01*
X-201233D01*
X-201900Y38667D01*
X-202483Y38920D01*
X-202983Y39300D01*
X-203317Y39743D01*
X-203400Y40250D01*
X-203317Y40757D01*
X-202983Y41200D01*
X-202483Y41580D01*
X-201900Y41833D01*
X-201233Y41960D01*
X-200567D01*
X-199900Y41833D01*
X-199317Y41580D01*
X-198817Y41200D01*
X-198483Y40757D01*
X-198400Y40250D01*
G01X-199733Y40757D02*
X-198400Y41517D01*
G01Y46110D02*
X-203400D01*
X-199817Y43767D01*
Y46933D01*
G01X-211600Y63983D02*
X-216600D01*
Y65317D01*
X-216350Y65743D01*
X-216017Y66010D01*
X-215350Y66117D01*
X-214683Y66010D01*
X-214267Y65690D01*
X-214017Y65317D01*
Y63983D01*
G01Y65317D02*
X-211600Y66117D01*
G01X-215767Y68437D02*
X-216267Y68757D01*
X-216517Y69130D01*
X-216600Y69557D01*
X-216433Y70090D01*
X-216017Y70463D01*
X-215517Y70570D01*
X-215017Y70517D01*
X-214600Y70303D01*
X-213767Y69237D01*
X-213183Y68757D01*
X-212350Y68437D01*
X-211600Y68330D01*
Y70570D01*
G01X-212183Y72943D02*
X-211767Y73317D01*
X-211600Y73743D01*
X-211767Y74170D01*
X-212267Y74543D01*
X-213017Y74810D01*
X-213767Y74917D01*
X-214683D01*
X-215433Y74810D01*
X-216100Y74543D01*
X-216433Y74223D01*
X-216600Y73850D01*
X-216433Y73423D01*
X-216100Y73103D01*
X-215600Y72890D01*
X-214933Y72783D01*
X-214350Y72890D01*
X-213767Y73157D01*
X-213433Y73477D01*
X-213350Y73850D01*
X-213517Y74277D01*
X-213933Y74597D01*
X-214683Y74917D01*
G01X-221850Y65250D02*
X-218350D01*
Y74250D01*
X-223350D01*
G01X-215733Y48398D02*
X-215983Y48078D01*
X-216150Y47705D01*
Y47278D01*
X-215900Y46798D01*
X-215483Y46425D01*
X-214983Y46158D01*
X-214150Y45945D01*
X-213400Y45892D01*
X-212650Y45998D01*
X-212150Y46158D01*
X-211650Y46478D01*
X-211317Y46852D01*
X-211150Y47225D01*
Y47598D01*
X-211317Y47972D01*
X-211567Y48292D01*
X-211900Y48558D01*
G01X-212150Y50452D02*
X-211567Y50772D01*
X-211233Y51198D01*
X-211150Y51678D01*
X-211233Y52105D01*
X-211650Y52532D01*
X-212150Y52798D01*
X-212650Y52852D01*
X-213233Y52745D01*
X-213650Y52372D01*
X-213817Y51998D01*
Y51518D01*
G01Y51998D02*
X-214067Y52318D01*
X-214483Y52585D01*
X-214983Y52692D01*
X-215483Y52585D01*
X-215900Y52318D01*
X-216150Y51838D01*
X-216067Y51358D01*
X-215733Y50878D01*
G01X-216150Y56025D02*
X-215983Y55598D01*
X-215567Y55278D01*
X-215067Y55065D01*
X-214400Y54905D01*
X-213650Y54852D01*
X-212900Y54905D01*
X-212233Y55065D01*
X-211733Y55278D01*
X-211317Y55598D01*
X-211150Y56025D01*
X-211317Y56452D01*
X-211733Y56772D01*
X-212233Y56985D01*
X-212900Y57145D01*
X-213650Y57198D01*
X-214400Y57145D01*
X-215067Y56985D01*
X-215567Y56772D01*
X-215983Y56452D01*
X-216150Y56025D01*
G01X-223325Y47550D02*
X-218325D01*
Y56550D01*
X-221825D01*
G01X-210850Y82533D02*
X-215850D01*
Y83867D01*
X-215600Y84293D01*
X-215267Y84560D01*
X-214600Y84667D01*
X-213933Y84560D01*
X-213517Y84240D01*
X-213267Y83867D01*
Y82533D01*
G01Y83867D02*
X-210850Y84667D01*
G01X-215017Y86987D02*
X-215517Y87307D01*
X-215767Y87680D01*
X-215850Y88107D01*
X-215683Y88640D01*
X-215267Y89013D01*
X-214767Y89120D01*
X-214267Y89067D01*
X-213850Y88853D01*
X-213017Y87787D01*
X-212433Y87307D01*
X-211600Y86987D01*
X-210850Y86880D01*
Y89120D01*
G01Y92400D02*
X-210933Y92773D01*
X-211183Y93200D01*
X-211600Y93467D01*
X-212183Y93573D01*
X-212767Y93467D01*
X-213267Y93147D01*
X-213517Y92667D01*
Y92133D01*
X-213683Y91813D01*
X-214100Y91547D01*
X-214683Y91440D01*
X-215267Y91600D01*
X-215683Y91973D01*
X-215850Y92400D01*
X-215683Y92827D01*
X-215267Y93200D01*
X-214683Y93360D01*
X-214100Y93253D01*
X-213683Y92987D01*
X-213517Y92667D01*
Y92133D01*
X-213267Y91653D01*
X-212767Y91333D01*
X-212183Y91227D01*
X-211600Y91333D01*
X-211183Y91600D01*
X-210933Y92027D01*
X-210850Y92400D01*
G01X-221550Y83825D02*
X-218050D01*
Y92825D01*
X-223050D01*
G01X-215983Y102548D02*
X-216233Y102228D01*
X-216400Y101855D01*
Y101428D01*
X-216150Y100948D01*
X-215733Y100575D01*
X-215233Y100308D01*
X-214400Y100095D01*
X-213650Y100042D01*
X-212900Y100148D01*
X-212400Y100308D01*
X-211900Y100628D01*
X-211567Y101002D01*
X-211400Y101375D01*
Y101748D01*
X-211567Y102122D01*
X-211817Y102442D01*
X-212150Y102708D01*
G01X-212400Y104602D02*
X-211817Y104922D01*
X-211483Y105348D01*
X-211400Y105828D01*
X-211483Y106255D01*
X-211900Y106682D01*
X-212400Y106948D01*
X-212900Y107002D01*
X-213483Y106895D01*
X-213900Y106522D01*
X-214067Y106148D01*
Y105668D01*
G01Y106148D02*
X-214317Y106468D01*
X-214733Y106735D01*
X-215233Y106842D01*
X-215733Y106735D01*
X-216150Y106468D01*
X-216400Y105988D01*
X-216317Y105508D01*
X-215983Y105028D01*
G01X-211400Y110175D02*
X-216400D01*
X-215400Y109535D01*
G01X-211400D02*
Y110815D01*
G01X-221700Y100950D02*
X-218200D01*
Y109950D01*
X-223200D01*
G01X-206700Y117302D02*
X-211700D01*
Y118368D01*
X-211450Y118795D01*
X-211117Y119115D01*
X-210617Y119382D01*
X-210033Y119595D01*
X-209200Y119648D01*
X-208367Y119595D01*
X-207783Y119382D01*
X-207283Y119115D01*
X-206950Y118795D01*
X-206700Y118368D01*
Y117302D01*
G01Y122875D02*
X-211700D01*
X-210700Y122235D01*
G01X-206700D02*
Y123515D01*
G01X-211700Y127275D02*
X-211533Y126848D01*
X-211117Y126528D01*
X-210617Y126315D01*
X-209950Y126155D01*
X-209200Y126102D01*
X-208450Y126155D01*
X-207783Y126315D01*
X-207283Y126528D01*
X-206867Y126848D01*
X-206700Y127275D01*
X-206867Y127702D01*
X-207283Y128022D01*
X-207783Y128235D01*
X-208450Y128395D01*
X-209200Y128448D01*
X-209950Y128395D01*
X-210617Y128235D01*
X-211117Y128022D01*
X-211533Y127702D01*
X-211700Y127275D01*
G01X-219475Y118050D02*
X-212475D01*
Y128050D01*
X-214475D01*
X-219475D01*
G01X-211125Y133533D02*
X-216125D01*
Y134867D01*
X-215875Y135293D01*
X-215542Y135560D01*
X-214875Y135667D01*
X-214208Y135560D01*
X-213792Y135240D01*
X-213542Y134867D01*
Y133533D01*
G01Y134867D02*
X-211125Y135667D01*
G01X-212125Y137827D02*
X-211542Y138147D01*
X-211208Y138573D01*
X-211125Y139053D01*
X-211208Y139480D01*
X-211625Y139907D01*
X-212125Y140173D01*
X-212625Y140227D01*
X-213208Y140120D01*
X-213625Y139747D01*
X-213792Y139373D01*
Y138893D01*
G01Y139373D02*
X-214042Y139693D01*
X-214458Y139960D01*
X-214958Y140067D01*
X-215458Y139960D01*
X-215875Y139693D01*
X-216125Y139213D01*
X-216042Y138733D01*
X-215708Y138253D01*
G01X-213208Y142387D02*
X-213792Y142760D01*
X-214125Y143080D01*
X-214292Y143507D01*
X-214125Y143880D01*
X-213792Y144147D01*
X-213292Y144360D01*
X-212708Y144413D01*
X-212208Y144360D01*
X-211708Y144147D01*
X-211292Y143827D01*
X-211125Y143453D01*
X-211292Y143027D01*
X-211792Y142653D01*
X-212542Y142440D01*
X-213375Y142387D01*
X-214458Y142493D01*
X-215042Y142653D01*
X-215625Y142920D01*
X-216042Y143293D01*
X-216125Y143667D01*
X-215958Y144040D01*
X-215542Y144307D01*
G01X-221400Y134550D02*
X-217900D01*
Y143550D01*
X-222900D01*
G01X-191418Y-72025D02*
Y-75608D01*
X-191165Y-76358D01*
X-190658Y-76858D01*
X-190025Y-77025D01*
X-189392Y-76858D01*
X-188885Y-76358D01*
X-188632Y-75608D01*
Y-72025D01*
G01X-184925Y-77025D02*
Y-72025D01*
X-185685Y-73025D01*
G01Y-77025D02*
X-184165D01*
G01X-179825D02*
X-179382Y-76942D01*
X-178875Y-76692D01*
X-178558Y-76275D01*
X-178432Y-75692D01*
X-178558Y-75108D01*
X-178938Y-74608D01*
X-179508Y-74358D01*
X-180142D01*
X-180522Y-74192D01*
X-180838Y-73775D01*
X-180965Y-73192D01*
X-180775Y-72608D01*
X-180332Y-72192D01*
X-179825Y-72025D01*
X-179318Y-72192D01*
X-178875Y-72608D01*
X-178685Y-73192D01*
X-178812Y-73775D01*
X-179128Y-74192D01*
X-179508Y-74358D01*
X-180142D01*
X-180712Y-74608D01*
X-181092Y-75108D01*
X-181218Y-75692D01*
X-181092Y-76275D01*
X-180775Y-76692D01*
X-180268Y-76942D01*
X-179825Y-77025D01*
G01X-195217Y-59900D02*
Y-54900D01*
X-193883D01*
X-193457Y-55150D01*
X-193190Y-55483D01*
X-193083Y-56150D01*
X-193190Y-56817D01*
X-193510Y-57233D01*
X-193883Y-57483D01*
X-195217D01*
G01X-193883D02*
X-193083Y-59900D01*
G01X-190923Y-59150D02*
X-190603Y-59567D01*
X-190230Y-59817D01*
X-189750Y-59900D01*
X-189270Y-59733D01*
X-188897Y-59400D01*
X-188630Y-58817D01*
X-188577Y-58150D01*
X-188683Y-57483D01*
X-188950Y-57067D01*
X-189323Y-56733D01*
X-189697Y-56650D01*
X-190070Y-56733D01*
X-190550Y-57067D01*
X-190390Y-54900D01*
X-188950D01*
G01X-195968Y-71452D02*
X-193182Y-67785D01*
G01X-194575Y-67118D02*
Y-72118D01*
G01X-193182Y-71452D02*
X-195968Y-67785D01*
G01X-196475Y-69618D02*
X-192675D01*
G01X-196850Y-47950D02*
Y-52950D01*
X-187850D01*
Y-49450D01*
G01Y-39450D02*
Y-35950D01*
X-196850D01*
Y-40950D01*
G01X-194918Y-23125D02*
Y-26708D01*
X-194665Y-27458D01*
X-194158Y-27958D01*
X-193525Y-28125D01*
X-192892Y-27958D01*
X-192385Y-27458D01*
X-192132Y-26708D01*
Y-23125D01*
G01X-187665Y-28125D02*
Y-23125D01*
X-190008Y-26708D01*
X-186842D01*
G01X-198168Y-14942D02*
X-195382Y-11275D01*
G01X-196775Y-10608D02*
Y-15608D01*
G01X-195382Y-14942D02*
X-198168Y-11275D01*
G01X-198675Y-13108D02*
X-194875D01*
G01X-189052Y13483D02*
X-189372Y13733D01*
X-189745Y13900D01*
X-190172D01*
X-190652Y13650D01*
X-191025Y13233D01*
X-191292Y12733D01*
X-191505Y11900D01*
X-191558Y11150D01*
X-191452Y10400D01*
X-191292Y9900D01*
X-190972Y9400D01*
X-190598Y9067D01*
X-190225Y8900D01*
X-189852D01*
X-189478Y9067D01*
X-189158Y9317D01*
X-188892Y9650D01*
G01X-186998Y9900D02*
X-186678Y9317D01*
X-186252Y8983D01*
X-185772Y8900D01*
X-185345Y8983D01*
X-184918Y9400D01*
X-184652Y9900D01*
X-184598Y10400D01*
X-184705Y10983D01*
X-185078Y11400D01*
X-185452Y11567D01*
X-185932D01*
G01X-185452D02*
X-185132Y11817D01*
X-184865Y12233D01*
X-184758Y12733D01*
X-184865Y13233D01*
X-185132Y13650D01*
X-185612Y13900D01*
X-186092Y13817D01*
X-186572Y13483D01*
G01X-182438Y13067D02*
X-182118Y13567D01*
X-181745Y13817D01*
X-181318Y13900D01*
X-180785Y13733D01*
X-180412Y13317D01*
X-180305Y12817D01*
X-180358Y12317D01*
X-180572Y11900D01*
X-181638Y11067D01*
X-182118Y10483D01*
X-182438Y9650D01*
X-182545Y8900D01*
X-180305D01*
G01X-189650Y21000D02*
Y16000D01*
X-180650D01*
Y19500D01*
G01Y29500D02*
Y33000D01*
X-189650D01*
Y28000D01*
G01X-180026Y42075D02*
Y43200D01*
X-180559Y44575D01*
G01X-179493D02*
X-180026Y43200D01*
G01X-177510Y42075D02*
Y44575D01*
X-178496Y42783D01*
X-177164D01*
G01X-155876Y61676D02*
Y96124D01*
X-190324D01*
Y61676D01*
X-155876D01*
G01X-190150Y131433D02*
X-189650Y131750D01*
X-189317Y132130D01*
X-189150Y132573D01*
X-189317Y133080D01*
X-189650Y133460D01*
X-190150Y133840D01*
X-190817Y133967D01*
X-194150D01*
G01X-189733Y136723D02*
X-189317Y137167D01*
X-189150Y137673D01*
X-189317Y138180D01*
X-189817Y138623D01*
X-190567Y138940D01*
X-191317Y139067D01*
X-192233D01*
X-192983Y138940D01*
X-193650Y138623D01*
X-193983Y138243D01*
X-194150Y137800D01*
X-193983Y137293D01*
X-193650Y136913D01*
X-193150Y136660D01*
X-192483Y136533D01*
X-191900Y136660D01*
X-191317Y136977D01*
X-190983Y137357D01*
X-190900Y137800D01*
X-191067Y138307D01*
X-191483Y138687D01*
X-192233Y139067D01*
G01X-173883Y-114360D02*
X-174133Y-114739D01*
X-174300Y-115183D01*
Y-115689D01*
X-174050Y-116259D01*
X-173633Y-116702D01*
X-173133Y-117019D01*
X-172300Y-117272D01*
X-171550Y-117335D01*
X-170800Y-117209D01*
X-170300Y-117019D01*
X-169800Y-116639D01*
X-169467Y-116196D01*
X-169300Y-115753D01*
Y-115309D01*
X-169467Y-114866D01*
X-169717Y-114486D01*
X-170050Y-114170D01*
G01X-173467Y-111858D02*
X-173967Y-111478D01*
X-174217Y-111034D01*
X-174300Y-110528D01*
X-174133Y-109895D01*
X-173717Y-109451D01*
X-173217Y-109325D01*
X-172717Y-109388D01*
X-172300Y-109641D01*
X-171467Y-110908D01*
X-170883Y-111478D01*
X-170050Y-111858D01*
X-169300Y-111984D01*
Y-109325D01*
G01X-170050Y-106949D02*
X-169633Y-106570D01*
X-169383Y-106126D01*
X-169300Y-105557D01*
X-169467Y-104987D01*
X-169800Y-104543D01*
X-170383Y-104227D01*
X-171050Y-104164D01*
X-171717Y-104290D01*
X-172133Y-104607D01*
X-172467Y-105050D01*
X-172550Y-105493D01*
X-172467Y-105936D01*
X-172133Y-106506D01*
X-174300Y-106316D01*
Y-104607D01*
G01X-151898Y-122002D02*
Y-107498D01*
X-166402D01*
Y-122002D01*
X-151898D01*
G01X-161502Y-85917D02*
X-161822Y-85667D01*
X-162195Y-85500D01*
X-162622D01*
X-163102Y-85750D01*
X-163475Y-86167D01*
X-163742Y-86667D01*
X-163955Y-87500D01*
X-164008Y-88250D01*
X-163902Y-89000D01*
X-163742Y-89500D01*
X-163422Y-90000D01*
X-163048Y-90333D01*
X-162675Y-90500D01*
X-162302D01*
X-161928Y-90333D01*
X-161608Y-90083D01*
X-161342Y-89750D01*
G01X-159288Y-86333D02*
X-158968Y-85833D01*
X-158595Y-85583D01*
X-158168Y-85500D01*
X-157635Y-85667D01*
X-157262Y-86083D01*
X-157155Y-86583D01*
X-157208Y-87083D01*
X-157422Y-87500D01*
X-158488Y-88333D01*
X-158968Y-88917D01*
X-159288Y-89750D01*
X-159395Y-90500D01*
X-157155D01*
G01X-154782Y-89917D02*
X-154408Y-90333D01*
X-153982Y-90500D01*
X-153555Y-90333D01*
X-153182Y-89833D01*
X-152915Y-89083D01*
X-152808Y-88333D01*
Y-87417D01*
X-152915Y-86667D01*
X-153182Y-86000D01*
X-153502Y-85667D01*
X-153875Y-85500D01*
X-154302Y-85667D01*
X-154622Y-86000D01*
X-154835Y-86500D01*
X-154942Y-87167D01*
X-154835Y-87750D01*
X-154568Y-88333D01*
X-154248Y-88667D01*
X-153875Y-88750D01*
X-153448Y-88583D01*
X-153128Y-88167D01*
X-152808Y-87417D01*
G01X-162550Y-78600D02*
Y-83600D01*
X-153550D01*
Y-80100D01*
G01X-160642Y-62975D02*
Y-57975D01*
X-159308D01*
X-158882Y-58225D01*
X-158615Y-58558D01*
X-158508Y-59225D01*
X-158615Y-59892D01*
X-158935Y-60308D01*
X-159308Y-60558D01*
X-160642D01*
G01X-159308D02*
X-158508Y-62975D01*
G01X-156188Y-60892D02*
X-155815Y-60308D01*
X-155495Y-59975D01*
X-155068Y-59808D01*
X-154695Y-59975D01*
X-154428Y-60308D01*
X-154215Y-60808D01*
X-154162Y-61392D01*
X-154215Y-61892D01*
X-154428Y-62392D01*
X-154748Y-62808D01*
X-155122Y-62975D01*
X-155548Y-62808D01*
X-155922Y-62308D01*
X-156135Y-61558D01*
X-156188Y-60725D01*
X-156082Y-59642D01*
X-155922Y-59058D01*
X-155655Y-58475D01*
X-155282Y-58058D01*
X-154908Y-57975D01*
X-154535Y-58142D01*
X-154268Y-58558D01*
G01X-162525Y-50950D02*
Y-55950D01*
X-153525D01*
Y-52450D01*
G01X-153550Y-70100D02*
Y-66600D01*
X-162550D01*
Y-71600D01*
G01X-153525Y-42450D02*
Y-38950D01*
X-162525D01*
Y-43950D01*
G01X-158452Y-28217D02*
X-158772Y-27967D01*
X-159145Y-27800D01*
X-159572D01*
X-160052Y-28050D01*
X-160425Y-28467D01*
X-160692Y-28967D01*
X-160905Y-29800D01*
X-160958Y-30550D01*
X-160852Y-31300D01*
X-160692Y-31800D01*
X-160372Y-32300D01*
X-159998Y-32633D01*
X-159625Y-32800D01*
X-159252D01*
X-158878Y-32633D01*
X-158558Y-32383D01*
X-158292Y-32050D01*
G01X-155332Y-32800D02*
X-155225Y-31717D01*
X-155065Y-30800D01*
X-154852Y-29967D01*
X-154585Y-29050D01*
X-154158Y-27800D01*
X-156292D01*
G01X-152975Y-15625D02*
Y-10625D01*
X-161975D01*
Y-14125D01*
G01Y-24125D02*
Y-27625D01*
X-152975D01*
Y-22625D01*
G01X-151327Y13608D02*
X-151647Y13858D01*
X-152020Y14025D01*
X-152447D01*
X-152927Y13775D01*
X-153300Y13358D01*
X-153567Y12858D01*
X-153780Y12025D01*
X-153833Y11275D01*
X-153727Y10525D01*
X-153567Y10025D01*
X-153247Y9525D01*
X-152873Y9192D01*
X-152500Y9025D01*
X-152127D01*
X-151753Y9192D01*
X-151433Y9442D01*
X-151167Y9775D01*
G01X-149113Y13192D02*
X-148793Y13692D01*
X-148420Y13942D01*
X-147993Y14025D01*
X-147460Y13858D01*
X-147087Y13442D01*
X-146980Y12942D01*
X-147033Y12442D01*
X-147247Y12025D01*
X-148313Y11192D01*
X-148793Y10608D01*
X-149113Y9775D01*
X-149220Y9025D01*
X-146980D01*
G01X-143700D02*
X-143327Y9108D01*
X-142900Y9358D01*
X-142633Y9775D01*
X-142527Y10358D01*
X-142633Y10942D01*
X-142953Y11442D01*
X-143433Y11692D01*
X-143967D01*
X-144287Y11858D01*
X-144553Y12275D01*
X-144660Y12858D01*
X-144500Y13442D01*
X-144127Y13858D01*
X-143700Y14025D01*
X-143273Y13858D01*
X-142900Y13442D01*
X-142740Y12858D01*
X-142847Y12275D01*
X-143113Y11858D01*
X-143433Y11692D01*
X-143967D01*
X-144447Y11442D01*
X-144767Y10942D01*
X-144873Y10358D01*
X-144767Y9775D01*
X-144500Y9358D01*
X-144073Y9108D01*
X-143700Y9025D01*
G01X-169377Y13408D02*
X-169697Y13658D01*
X-170070Y13825D01*
X-170497D01*
X-170977Y13575D01*
X-171350Y13158D01*
X-171617Y12658D01*
X-171830Y11825D01*
X-171883Y11075D01*
X-171777Y10325D01*
X-171617Y9825D01*
X-171297Y9325D01*
X-170923Y8992D01*
X-170550Y8825D01*
X-170177D01*
X-169803Y8992D01*
X-169483Y9242D01*
X-169217Y9575D01*
G01X-167323Y9825D02*
X-167003Y9242D01*
X-166577Y8908D01*
X-166097Y8825D01*
X-165670Y8908D01*
X-165243Y9325D01*
X-164977Y9825D01*
X-164923Y10325D01*
X-165030Y10908D01*
X-165403Y11325D01*
X-165777Y11492D01*
X-166257D01*
G01X-165777D02*
X-165457Y11742D01*
X-165190Y12158D01*
X-165083Y12658D01*
X-165190Y13158D01*
X-165457Y13575D01*
X-165937Y13825D01*
X-166417Y13742D01*
X-166897Y13408D01*
G01X-162923Y9825D02*
X-162603Y9242D01*
X-162177Y8908D01*
X-161697Y8825D01*
X-161270Y8908D01*
X-160843Y9325D01*
X-160577Y9825D01*
X-160523Y10325D01*
X-160630Y10908D01*
X-161003Y11325D01*
X-161377Y11492D01*
X-161857D01*
G01X-161377D02*
X-161057Y11742D01*
X-160790Y12158D01*
X-160683Y12658D01*
X-160790Y13158D01*
X-161057Y13575D01*
X-161537Y13825D01*
X-162017Y13742D01*
X-162497Y13408D01*
G01X-170525Y20875D02*
Y15875D01*
X-161525D01*
Y19375D01*
G01Y29375D02*
Y32875D01*
X-170525D01*
Y27875D01*
G01X-141933Y-114510D02*
X-142183Y-114889D01*
X-142350Y-115333D01*
Y-115839D01*
X-142100Y-116409D01*
X-141683Y-116852D01*
X-141183Y-117169D01*
X-140350Y-117422D01*
X-139600Y-117485D01*
X-138850Y-117359D01*
X-138350Y-117169D01*
X-137850Y-116789D01*
X-137517Y-116346D01*
X-137350Y-115903D01*
Y-115459D01*
X-137517Y-115016D01*
X-137767Y-114636D01*
X-138100Y-114320D01*
G01X-141517Y-112008D02*
X-142017Y-111628D01*
X-142267Y-111184D01*
X-142350Y-110678D01*
X-142183Y-110045D01*
X-141767Y-109601D01*
X-141267Y-109475D01*
X-140767Y-109538D01*
X-140350Y-109791D01*
X-139517Y-111058D01*
X-138933Y-111628D01*
X-138100Y-112008D01*
X-137350Y-112134D01*
Y-109475D01*
G01Y-105833D02*
X-138433Y-105707D01*
X-139350Y-105517D01*
X-140183Y-105263D01*
X-141100Y-104947D01*
X-142350Y-104440D01*
Y-106973D01*
G01X-119948Y-122152D02*
Y-107648D01*
X-134452D01*
Y-122152D01*
X-119948D01*
G01X-146842Y-90675D02*
Y-85675D01*
X-145508D01*
X-145082Y-85925D01*
X-144815Y-86258D01*
X-144708Y-86925D01*
X-144815Y-87592D01*
X-145135Y-88008D01*
X-145508Y-88258D01*
X-146842D01*
G01X-145508D02*
X-144708Y-90675D01*
G01X-142388Y-86508D02*
X-142068Y-86008D01*
X-141695Y-85758D01*
X-141268Y-85675D01*
X-140735Y-85842D01*
X-140362Y-86258D01*
X-140255Y-86758D01*
X-140308Y-87258D01*
X-140522Y-87675D01*
X-141588Y-88508D01*
X-142068Y-89092D01*
X-142388Y-89925D01*
X-142495Y-90675D01*
X-140255D01*
G01X-137988Y-88592D02*
X-137615Y-88008D01*
X-137295Y-87675D01*
X-136868Y-87508D01*
X-136495Y-87675D01*
X-136228Y-88008D01*
X-136015Y-88508D01*
X-135962Y-89092D01*
X-136015Y-89592D01*
X-136228Y-90092D01*
X-136548Y-90508D01*
X-136922Y-90675D01*
X-137348Y-90508D01*
X-137722Y-90008D01*
X-137935Y-89258D01*
X-137988Y-88425D01*
X-137882Y-87342D01*
X-137722Y-86758D01*
X-137455Y-86175D01*
X-137082Y-85758D01*
X-136708Y-85675D01*
X-136335Y-85842D01*
X-136068Y-86258D01*
G01X-146200Y-79025D02*
Y-84025D01*
X-137200D01*
Y-80525D01*
G01X-141602Y-58667D02*
X-141922Y-58417D01*
X-142295Y-58250D01*
X-142722D01*
X-143202Y-58500D01*
X-143575Y-58917D01*
X-143842Y-59417D01*
X-144055Y-60250D01*
X-144108Y-61000D01*
X-144002Y-61750D01*
X-143842Y-62250D01*
X-143522Y-62750D01*
X-143148Y-63083D01*
X-142775Y-63250D01*
X-142402D01*
X-142028Y-63083D01*
X-141708Y-62833D01*
X-141442Y-62500D01*
G01X-139388Y-61167D02*
X-139015Y-60583D01*
X-138695Y-60250D01*
X-138268Y-60083D01*
X-137895Y-60250D01*
X-137628Y-60583D01*
X-137415Y-61083D01*
X-137362Y-61667D01*
X-137415Y-62167D01*
X-137628Y-62667D01*
X-137948Y-63083D01*
X-138322Y-63250D01*
X-138748Y-63083D01*
X-139122Y-62583D01*
X-139335Y-61833D01*
X-139388Y-61000D01*
X-139282Y-59917D01*
X-139122Y-59333D01*
X-138855Y-58750D01*
X-138482Y-58333D01*
X-138108Y-58250D01*
X-137735Y-58417D01*
X-137468Y-58833D01*
G01X-145350Y-51200D02*
Y-56200D01*
X-136350D01*
Y-52700D01*
G01X-137200Y-70525D02*
Y-67025D01*
X-146200D01*
Y-72025D01*
G01X-136350Y-42700D02*
Y-39200D01*
X-145350D01*
Y-44200D01*
G01X-141677Y-27892D02*
X-141997Y-27642D01*
X-142370Y-27475D01*
X-142797D01*
X-143277Y-27725D01*
X-143650Y-28142D01*
X-143917Y-28642D01*
X-144130Y-29475D01*
X-144183Y-30225D01*
X-144077Y-30975D01*
X-143917Y-31475D01*
X-143597Y-31975D01*
X-143223Y-32308D01*
X-142850Y-32475D01*
X-142477D01*
X-142103Y-32308D01*
X-141783Y-32058D01*
X-141517Y-31725D01*
G01X-138450Y-32475D02*
X-138077Y-32392D01*
X-137650Y-32142D01*
X-137383Y-31725D01*
X-137277Y-31142D01*
X-137383Y-30558D01*
X-137703Y-30058D01*
X-138183Y-29808D01*
X-138717D01*
X-139037Y-29642D01*
X-139303Y-29225D01*
X-139410Y-28642D01*
X-139250Y-28058D01*
X-138877Y-27642D01*
X-138450Y-27475D01*
X-138023Y-27642D01*
X-137650Y-28058D01*
X-137490Y-28642D01*
X-137597Y-29225D01*
X-137863Y-29642D01*
X-138183Y-29808D01*
X-138717D01*
X-139197Y-30058D01*
X-139517Y-30558D01*
X-139623Y-31142D01*
X-139517Y-31725D01*
X-139250Y-32142D01*
X-138823Y-32392D01*
X-138450Y-32475D01*
G01X-135850Y-15375D02*
Y-10375D01*
X-144850D01*
Y-13875D01*
G01Y-23875D02*
Y-27375D01*
X-135850D01*
Y-22375D01*
G01X-152525Y21000D02*
Y16000D01*
X-143525D01*
Y19500D01*
G01Y29500D02*
Y33000D01*
X-152525D01*
Y28000D01*
G01X-143900Y52343D02*
X-147483D01*
X-148233Y52090D01*
X-148733Y51583D01*
X-148900Y50950D01*
X-148733Y50317D01*
X-148233Y49810D01*
X-147483Y49557D01*
X-143900D01*
G01X-148900Y45850D02*
X-143900D01*
X-144900Y46610D01*
G01X-148900D02*
Y45090D01*
G01Y40877D02*
X-147817Y40750D01*
X-146900Y40560D01*
X-146067Y40307D01*
X-145150Y39990D01*
X-143900Y39483D01*
Y42017D01*
G01X-150825Y59832D02*
X-147242D01*
X-146492Y60085D01*
X-145992Y60591D01*
X-145825Y61224D01*
X-145992Y61858D01*
X-146492Y62364D01*
X-147242Y62617D01*
X-150825D01*
G01X-145825Y66322D02*
X-150825D01*
X-149825Y65563D01*
G01X-145825D02*
Y67082D01*
G01X-146408Y70344D02*
X-145992Y70787D01*
X-145825Y71294D01*
X-145992Y71800D01*
X-146492Y72244D01*
X-147242Y72560D01*
X-147992Y72687D01*
X-148908D01*
X-149658Y72560D01*
X-150325Y72244D01*
X-150658Y71864D01*
X-150825Y71420D01*
X-150658Y70914D01*
X-150325Y70534D01*
X-149825Y70281D01*
X-149158Y70154D01*
X-148575Y70281D01*
X-147992Y70597D01*
X-147658Y70977D01*
X-147575Y71420D01*
X-147742Y71927D01*
X-148158Y72307D01*
X-148908Y72687D01*
G01X-128500Y64983D02*
X-133500D01*
Y66317D01*
X-133250Y66743D01*
X-132917Y67010D01*
X-132250Y67117D01*
X-131583Y67010D01*
X-131167Y66690D01*
X-130917Y66317D01*
Y64983D01*
G01Y66317D02*
X-128500Y67117D01*
G01X-129500Y69277D02*
X-128917Y69597D01*
X-128583Y70023D01*
X-128500Y70503D01*
X-128583Y70930D01*
X-129000Y71357D01*
X-129500Y71623D01*
X-130000Y71677D01*
X-130583Y71570D01*
X-131000Y71197D01*
X-131167Y70823D01*
Y70343D01*
G01Y70823D02*
X-131417Y71143D01*
X-131833Y71410D01*
X-132333Y71517D01*
X-132833Y71410D01*
X-133250Y71143D01*
X-133500Y70663D01*
X-133417Y70183D01*
X-133083Y69703D01*
G01X-128500Y74850D02*
X-133500D01*
X-132500Y74210D01*
G01X-128500D02*
Y75490D01*
G01X-128275Y49708D02*
X-133275D01*
Y51042D01*
X-133025Y51468D01*
X-132692Y51735D01*
X-132025Y51842D01*
X-131358Y51735D01*
X-130942Y51415D01*
X-130692Y51042D01*
Y49708D01*
G01Y51042D02*
X-128275Y51842D01*
G01X-129275Y54002D02*
X-128692Y54322D01*
X-128358Y54748D01*
X-128275Y55228D01*
X-128358Y55655D01*
X-128775Y56082D01*
X-129275Y56348D01*
X-129775Y56402D01*
X-130358Y56295D01*
X-130775Y55922D01*
X-130942Y55548D01*
Y55068D01*
G01Y55548D02*
X-131192Y55868D01*
X-131608Y56135D01*
X-132108Y56242D01*
X-132608Y56135D01*
X-133025Y55868D01*
X-133275Y55388D01*
X-133192Y54908D01*
X-132858Y54428D01*
G01X-129025Y58402D02*
X-128608Y58722D01*
X-128358Y59095D01*
X-128275Y59575D01*
X-128442Y60055D01*
X-128775Y60428D01*
X-129358Y60695D01*
X-130025Y60748D01*
X-130692Y60642D01*
X-131108Y60375D01*
X-131442Y60002D01*
X-131525Y59628D01*
X-131442Y59255D01*
X-131108Y58775D01*
X-133275Y58935D01*
Y60375D01*
G01X-141127Y52943D02*
X-137460Y50157D01*
G01X-136793Y51550D02*
X-141793D01*
G01X-141127Y50157D02*
X-137460Y52943D01*
G01X-139293Y53450D02*
Y49650D01*
G01X-128250Y82758D02*
X-133250D01*
Y84092D01*
X-133000Y84518D01*
X-132667Y84785D01*
X-132000Y84892D01*
X-131333Y84785D01*
X-130917Y84465D01*
X-130667Y84092D01*
Y82758D01*
G01Y84092D02*
X-128250Y84892D01*
G01Y88118D02*
X-129333Y88225D01*
X-130250Y88385D01*
X-131083Y88598D01*
X-132000Y88865D01*
X-133250Y89292D01*
Y87158D01*
G01X-128700Y95983D02*
X-133700D01*
Y97317D01*
X-133450Y97743D01*
X-133117Y98010D01*
X-132450Y98117D01*
X-131783Y98010D01*
X-131367Y97690D01*
X-131117Y97317D01*
Y95983D01*
G01Y97317D02*
X-128700Y98117D01*
G01X-132867Y100437D02*
X-133367Y100757D01*
X-133617Y101130D01*
X-133700Y101557D01*
X-133533Y102090D01*
X-133117Y102463D01*
X-132617Y102570D01*
X-132117Y102517D01*
X-131700Y102303D01*
X-130867Y101237D01*
X-130283Y100757D01*
X-129450Y100437D01*
X-128700Y100330D01*
Y102570D01*
G01X-129450Y104677D02*
X-129033Y104997D01*
X-128783Y105370D01*
X-128700Y105850D01*
X-128867Y106330D01*
X-129200Y106703D01*
X-129783Y106970D01*
X-130450Y107023D01*
X-131117Y106917D01*
X-131533Y106650D01*
X-131867Y106277D01*
X-131950Y105903D01*
X-131867Y105530D01*
X-131533Y105050D01*
X-133700Y105210D01*
Y106650D01*
G01X-127700Y112483D02*
X-132700D01*
Y113817D01*
X-132450Y114243D01*
X-132117Y114510D01*
X-131450Y114617D01*
X-130783Y114510D01*
X-130367Y114190D01*
X-130117Y113817D01*
Y112483D01*
G01Y113817D02*
X-127700Y114617D01*
G01X-128700Y116777D02*
X-128117Y117097D01*
X-127783Y117523D01*
X-127700Y118003D01*
X-127783Y118430D01*
X-128200Y118857D01*
X-128700Y119123D01*
X-129200Y119177D01*
X-129783Y119070D01*
X-130200Y118697D01*
X-130367Y118323D01*
Y117843D01*
G01Y118323D02*
X-130617Y118643D01*
X-131033Y118910D01*
X-131533Y119017D01*
X-132033Y118910D01*
X-132450Y118643D01*
X-132700Y118163D01*
X-132617Y117683D01*
X-132283Y117203D01*
G01X-128700Y121177D02*
X-128117Y121497D01*
X-127783Y121923D01*
X-127700Y122403D01*
X-127783Y122830D01*
X-128200Y123257D01*
X-128700Y123523D01*
X-129200Y123577D01*
X-129783Y123470D01*
X-130200Y123097D01*
X-130367Y122723D01*
Y122243D01*
G01Y122723D02*
X-130617Y123043D01*
X-131033Y123310D01*
X-131533Y123417D01*
X-132033Y123310D01*
X-132450Y123043D01*
X-132700Y122563D01*
X-132617Y122083D01*
X-132283Y121603D01*
G01X-127500Y131033D02*
X-132500D01*
Y132367D01*
X-132250Y132793D01*
X-131917Y133060D01*
X-131250Y133167D01*
X-130583Y133060D01*
X-130167Y132740D01*
X-129917Y132367D01*
Y131033D01*
G01Y132367D02*
X-127500Y133167D01*
G01X-128500Y135327D02*
X-127917Y135647D01*
X-127583Y136073D01*
X-127500Y136553D01*
X-127583Y136980D01*
X-128000Y137407D01*
X-128500Y137673D01*
X-129000Y137727D01*
X-129583Y137620D01*
X-130000Y137247D01*
X-130167Y136873D01*
Y136393D01*
G01Y136873D02*
X-130417Y137193D01*
X-130833Y137460D01*
X-131333Y137567D01*
X-131833Y137460D01*
X-132250Y137193D01*
X-132500Y136713D01*
X-132417Y136233D01*
X-132083Y135753D01*
G01X-127500Y141540D02*
X-132500D01*
X-128917Y139567D01*
Y142233D01*
G01X-123952Y-86492D02*
X-124272Y-86242D01*
X-124645Y-86075D01*
X-125072D01*
X-125552Y-86325D01*
X-125925Y-86742D01*
X-126192Y-87242D01*
X-126405Y-88075D01*
X-126458Y-88825D01*
X-126352Y-89575D01*
X-126192Y-90075D01*
X-125872Y-90575D01*
X-125498Y-90908D01*
X-125125Y-91075D01*
X-124752D01*
X-124378Y-90908D01*
X-124058Y-90658D01*
X-123792Y-90325D01*
G01X-121898Y-90075D02*
X-121578Y-90658D01*
X-121152Y-90992D01*
X-120672Y-91075D01*
X-120245Y-90992D01*
X-119818Y-90575D01*
X-119552Y-90075D01*
X-119498Y-89575D01*
X-119605Y-88992D01*
X-119978Y-88575D01*
X-120352Y-88408D01*
X-120832D01*
G01X-120352D02*
X-120032Y-88158D01*
X-119765Y-87742D01*
X-119658Y-87242D01*
X-119765Y-86742D01*
X-120032Y-86325D01*
X-120512Y-86075D01*
X-120992Y-86158D01*
X-121472Y-86492D01*
G01X-127650Y-80725D02*
Y-84225D01*
X-118650D01*
Y-79225D01*
G01Y-72225D02*
Y-67225D01*
X-127650D01*
Y-70725D01*
G01X-128317Y-62775D02*
Y-57775D01*
X-126983D01*
X-126557Y-58025D01*
X-126290Y-58358D01*
X-126183Y-59025D01*
X-126290Y-59692D01*
X-126610Y-60108D01*
X-126983Y-60358D01*
X-128317D01*
G01X-126983D02*
X-126183Y-62775D01*
G01X-123863Y-58608D02*
X-123543Y-58108D01*
X-123170Y-57858D01*
X-122743Y-57775D01*
X-122210Y-57942D01*
X-121837Y-58358D01*
X-121730Y-58858D01*
X-121783Y-59358D01*
X-121997Y-59775D01*
X-123063Y-60608D01*
X-123543Y-61192D01*
X-123863Y-62025D01*
X-123970Y-62775D01*
X-121730D01*
G01X-118557D02*
X-118450Y-61692D01*
X-118290Y-60775D01*
X-118077Y-59942D01*
X-117810Y-59025D01*
X-117383Y-57775D01*
X-119517D01*
G01X-127925Y-50675D02*
Y-55675D01*
X-118925D01*
Y-52175D01*
G01Y-42175D02*
Y-38675D01*
X-127925D01*
Y-43675D01*
G01X-121175Y74225D02*
X-126175D01*
Y65225D01*
X-122675D01*
G01X-112675D02*
X-109175D01*
Y74225D01*
X-114175D01*
G01X-121175Y59375D02*
X-126175D01*
Y50375D01*
X-122675D01*
G01X-112675D02*
X-109175D01*
Y59375D01*
X-114175D01*
G01X-121000Y90100D02*
X-126000D01*
Y81100D01*
X-122500D01*
G01X-112500D02*
X-109000D01*
Y90100D01*
X-114000D01*
G01X-120775Y105700D02*
X-125775D01*
Y96700D01*
X-122275D01*
G01X-112275D02*
X-108775D01*
Y105700D01*
X-113775D01*
G01X-120675Y122850D02*
X-125675D01*
Y113850D01*
X-122175D01*
G01X-112175D02*
X-108675D01*
Y122850D01*
X-113675D01*
G01X-120725Y140500D02*
X-125725D01*
Y131500D01*
X-122225D01*
G01X-112225D02*
X-108725D01*
Y140500D01*
X-113725D01*
G01X-86675Y-98500D02*
Y-103500D01*
X-77675D01*
Y-100000D01*
G01X-79842Y-78873D02*
X-79592Y-78553D01*
X-79425Y-78180D01*
Y-77753D01*
X-79675Y-77273D01*
X-80092Y-76900D01*
X-80592Y-76633D01*
X-81425Y-76420D01*
X-82175Y-76367D01*
X-82925Y-76473D01*
X-83425Y-76633D01*
X-83925Y-76953D01*
X-84258Y-77327D01*
X-84425Y-77700D01*
Y-78073D01*
X-84258Y-78447D01*
X-84008Y-78767D01*
X-83675Y-79033D01*
G01X-84425Y-82100D02*
X-79425D01*
X-80425Y-81460D01*
G01X-84425D02*
Y-82740D01*
G01X-77675Y-90000D02*
Y-86500D01*
X-86675D01*
Y-91500D01*
G01X-86375Y-60175D02*
Y-67175D01*
X-76375D01*
Y-60175D01*
G01X-85450Y-31825D02*
Y-36825D01*
X-76450D01*
Y-33325D01*
G01X-76375Y-49175D02*
Y-42175D01*
X-86375D01*
Y-44175D01*
Y-49175D01*
G01X-76450Y-23325D02*
Y-19825D01*
X-85450D01*
Y-24825D01*
G01X-80017Y66700D02*
Y71700D01*
X-78683D01*
X-78257Y71450D01*
X-77990Y71117D01*
X-77883Y70450D01*
X-77990Y69783D01*
X-78310Y69367D01*
X-78683Y69117D01*
X-80017D01*
G01X-78683D02*
X-77883Y66700D01*
G01X-75723Y67700D02*
X-75403Y67117D01*
X-74977Y66783D01*
X-74497Y66700D01*
X-74070Y66783D01*
X-73643Y67200D01*
X-73377Y67700D01*
X-73323Y68200D01*
X-73430Y68783D01*
X-73803Y69200D01*
X-74177Y69367D01*
X-74657D01*
G01X-74177D02*
X-73857Y69617D01*
X-73590Y70033D01*
X-73483Y70533D01*
X-73590Y71033D01*
X-73857Y71450D01*
X-74337Y71700D01*
X-74817Y71617D01*
X-75297Y71283D01*
G01X-71163Y70867D02*
X-70843Y71367D01*
X-70470Y71617D01*
X-70043Y71700D01*
X-69510Y71533D01*
X-69137Y71117D01*
X-69030Y70617D01*
X-69083Y70117D01*
X-69297Y69700D01*
X-70363Y68867D01*
X-70843Y68283D01*
X-71163Y67450D01*
X-71270Y66700D01*
X-69030D01*
G01X-94350Y74250D02*
X-99350D01*
Y65250D01*
X-95850D01*
G01X-85850D02*
X-82350D01*
Y74250D01*
X-87350D01*
G01X-92725Y54725D02*
X-97725D01*
Y45725D01*
X-94225D01*
G01X-84225D02*
X-80725D01*
Y54725D01*
X-85725D01*
G01X-79223Y83475D02*
Y88475D01*
X-78157D01*
X-77730Y88225D01*
X-77410Y87892D01*
X-77143Y87392D01*
X-76930Y86808D01*
X-76877Y85975D01*
X-76930Y85142D01*
X-77143Y84558D01*
X-77410Y84058D01*
X-77730Y83725D01*
X-78157Y83475D01*
X-79223D01*
G01X-73650D02*
Y88475D01*
X-74290Y87475D01*
G01Y83475D02*
X-73010D01*
G01X-94300Y90050D02*
X-99300D01*
Y81050D01*
X-95800D01*
G01X-85800D02*
X-82300D01*
Y90050D01*
X-87300D01*
G01X-79698Y98075D02*
Y103075D01*
X-78632D01*
X-78205Y102825D01*
X-77885Y102492D01*
X-77618Y101992D01*
X-77405Y101408D01*
X-77352Y100575D01*
X-77405Y99742D01*
X-77618Y99158D01*
X-77885Y98658D01*
X-78205Y98325D01*
X-78632Y98075D01*
X-79698D01*
G01X-74232D02*
X-74125Y99158D01*
X-73965Y100075D01*
X-73752Y100908D01*
X-73485Y101825D01*
X-73058Y103075D01*
X-75192D01*
G01X-94175Y105700D02*
X-99175D01*
Y96700D01*
X-95675D01*
G01X-85675D02*
X-82175D01*
Y105700D01*
X-87175D01*
G01X-79323Y115325D02*
Y120325D01*
X-78257D01*
X-77830Y120075D01*
X-77510Y119742D01*
X-77243Y119242D01*
X-77030Y118658D01*
X-76977Y117825D01*
X-77030Y116992D01*
X-77243Y116408D01*
X-77510Y115908D01*
X-77830Y115575D01*
X-78257Y115325D01*
X-79323D01*
G01X-73750D02*
X-73377Y115408D01*
X-72950Y115658D01*
X-72683Y116075D01*
X-72577Y116658D01*
X-72683Y117242D01*
X-73003Y117742D01*
X-73483Y117992D01*
X-74017D01*
X-74337Y118158D01*
X-74603Y118575D01*
X-74710Y119158D01*
X-74550Y119742D01*
X-74177Y120158D01*
X-73750Y120325D01*
X-73323Y120158D01*
X-72950Y119742D01*
X-72790Y119158D01*
X-72897Y118575D01*
X-73163Y118158D01*
X-73483Y117992D01*
X-74017D01*
X-74497Y117742D01*
X-74817Y117242D01*
X-74923Y116658D01*
X-74817Y116075D01*
X-74550Y115658D01*
X-74123Y115408D01*
X-73750Y115325D01*
G01X-94000Y122850D02*
X-99000D01*
Y113850D01*
X-95500D01*
G01X-85500D02*
X-82000D01*
Y122850D01*
X-87000D01*
G01X-79148Y133150D02*
Y138150D01*
X-78082D01*
X-77655Y137900D01*
X-77335Y137567D01*
X-77068Y137067D01*
X-76855Y136483D01*
X-76802Y135650D01*
X-76855Y134817D01*
X-77068Y134233D01*
X-77335Y133733D01*
X-77655Y133400D01*
X-78082Y133150D01*
X-79148D01*
G01X-74482Y133733D02*
X-74108Y133317D01*
X-73682Y133150D01*
X-73255Y133317D01*
X-72882Y133817D01*
X-72615Y134567D01*
X-72508Y135317D01*
Y136233D01*
X-72615Y136983D01*
X-72882Y137650D01*
X-73202Y137983D01*
X-73575Y138150D01*
X-74002Y137983D01*
X-74322Y137650D01*
X-74535Y137150D01*
X-74642Y136483D01*
X-74535Y135900D01*
X-74268Y135317D01*
X-73948Y134983D01*
X-73575Y134900D01*
X-73148Y135067D01*
X-72828Y135483D01*
X-72508Y136233D01*
G01X-94000Y140525D02*
X-99000D01*
Y131525D01*
X-95500D01*
G01X-85500D02*
X-82000D01*
Y140525D01*
X-87000D01*
G01X-70425Y-98575D02*
Y-103575D01*
X-61425D01*
Y-100075D01*
G01X-68300Y-77102D02*
X-63300D01*
Y-78168D01*
X-63550Y-78595D01*
X-63883Y-78915D01*
X-64383Y-79182D01*
X-64967Y-79395D01*
X-65800Y-79448D01*
X-66633Y-79395D01*
X-67217Y-79182D01*
X-67717Y-78915D01*
X-68050Y-78595D01*
X-68300Y-78168D01*
Y-77102D01*
G01Y-83315D02*
X-63300D01*
X-66883Y-81342D01*
Y-84008D01*
G01X-61425Y-90075D02*
Y-86575D01*
X-70425D01*
Y-91575D01*
G01X-55392Y-65112D02*
X-51258D01*
Y-44088D01*
X-55392D01*
Y-65112D01*
G01X-71958Y-62502D02*
X-72208Y-62822D01*
X-72375Y-63195D01*
Y-63622D01*
X-72125Y-64102D01*
X-71708Y-64475D01*
X-71208Y-64742D01*
X-70375Y-64955D01*
X-69625Y-65008D01*
X-68875Y-64902D01*
X-68375Y-64742D01*
X-67875Y-64422D01*
X-67542Y-64048D01*
X-67375Y-63675D01*
Y-63302D01*
X-67542Y-62928D01*
X-67792Y-62608D01*
X-68125Y-62342D01*
G01X-71542Y-60288D02*
X-72042Y-59968D01*
X-72292Y-59595D01*
X-72375Y-59168D01*
X-72208Y-58635D01*
X-71792Y-58262D01*
X-71292Y-58155D01*
X-70792Y-58208D01*
X-70375Y-58422D01*
X-69542Y-59488D01*
X-68958Y-59968D01*
X-68125Y-60288D01*
X-67375Y-60395D01*
Y-58155D01*
G01X-71542Y-55888D02*
X-72042Y-55568D01*
X-72292Y-55195D01*
X-72375Y-54768D01*
X-72208Y-54235D01*
X-71792Y-53862D01*
X-71292Y-53755D01*
X-70792Y-53808D01*
X-70375Y-54022D01*
X-69542Y-55088D01*
X-68958Y-55568D01*
X-68125Y-55888D01*
X-67375Y-55995D01*
Y-53755D01*
G01X-71533Y-36152D02*
X-71783Y-36472D01*
X-71950Y-36845D01*
Y-37272D01*
X-71700Y-37752D01*
X-71283Y-38125D01*
X-70783Y-38392D01*
X-69950Y-38605D01*
X-69200Y-38658D01*
X-68450Y-38552D01*
X-67950Y-38392D01*
X-67450Y-38072D01*
X-67117Y-37698D01*
X-66950Y-37325D01*
Y-36952D01*
X-67117Y-36578D01*
X-67367Y-36258D01*
X-67700Y-35992D01*
G01X-71117Y-33938D02*
X-71617Y-33618D01*
X-71867Y-33245D01*
X-71950Y-32818D01*
X-71783Y-32285D01*
X-71367Y-31912D01*
X-70867Y-31805D01*
X-70367Y-31858D01*
X-69950Y-32072D01*
X-69117Y-33138D01*
X-68533Y-33618D01*
X-67700Y-33938D01*
X-66950Y-34045D01*
Y-31805D01*
G01X-67950Y-29698D02*
X-67367Y-29378D01*
X-67033Y-28952D01*
X-66950Y-28472D01*
X-67033Y-28045D01*
X-67450Y-27618D01*
X-67950Y-27352D01*
X-68450Y-27298D01*
X-69033Y-27405D01*
X-69450Y-27778D01*
X-69617Y-28152D01*
Y-28632D01*
G01Y-28152D02*
X-69867Y-27832D01*
X-70283Y-27565D01*
X-70783Y-27458D01*
X-71283Y-27565D01*
X-71700Y-27832D01*
X-71950Y-28312D01*
X-71867Y-28792D01*
X-71533Y-29272D01*
G01X-58275Y-31700D02*
Y-36700D01*
X-49275D01*
Y-33200D01*
G01X-62227Y-4692D02*
X-62547Y-4442D01*
X-62920Y-4275D01*
X-63347D01*
X-63827Y-4525D01*
X-64200Y-4942D01*
X-64467Y-5442D01*
X-64680Y-6275D01*
X-64733Y-7025D01*
X-64627Y-7775D01*
X-64467Y-8275D01*
X-64147Y-8775D01*
X-63773Y-9108D01*
X-63400Y-9275D01*
X-63027D01*
X-62653Y-9108D01*
X-62333Y-8858D01*
X-62067Y-8525D01*
G01X-60173D02*
X-59853Y-8942D01*
X-59480Y-9192D01*
X-59000Y-9275D01*
X-58520Y-9108D01*
X-58147Y-8775D01*
X-57880Y-8192D01*
X-57827Y-7525D01*
X-57933Y-6858D01*
X-58200Y-6442D01*
X-58573Y-6108D01*
X-58947Y-6025D01*
X-59320Y-6108D01*
X-59800Y-6442D01*
X-59640Y-4275D01*
X-58200D01*
G01X-49275Y-23200D02*
Y-19700D01*
X-58275D01*
Y-24700D01*
G01X-57900Y9225D02*
X-62900D01*
Y225D01*
X-59400D01*
G01X-76077Y51958D02*
X-76397Y52208D01*
X-76770Y52375D01*
X-77197D01*
X-77677Y52125D01*
X-78050Y51708D01*
X-78317Y51208D01*
X-78530Y50375D01*
X-78583Y49625D01*
X-78477Y48875D01*
X-78317Y48375D01*
X-77997Y47875D01*
X-77623Y47542D01*
X-77250Y47375D01*
X-76877D01*
X-76503Y47542D01*
X-76183Y47792D01*
X-75917Y48125D01*
G01X-74023Y48375D02*
X-73703Y47792D01*
X-73277Y47458D01*
X-72797Y47375D01*
X-72370Y47458D01*
X-71943Y47875D01*
X-71677Y48375D01*
X-71623Y48875D01*
X-71730Y49458D01*
X-72103Y49875D01*
X-72477Y50042D01*
X-72957D01*
G01X-72477D02*
X-72157Y50292D01*
X-71890Y50708D01*
X-71783Y51208D01*
X-71890Y51708D01*
X-72157Y52125D01*
X-72637Y52375D01*
X-73117Y52292D01*
X-73597Y51958D01*
G01X-67810Y47375D02*
Y52375D01*
X-69783Y48792D01*
X-67117D01*
G01X-69000Y92575D02*
X-58000D01*
Y137575D01*
X-69000D01*
Y92575D01*
G01X-56267Y116075D02*
X-55950Y115575D01*
X-55570Y115242D01*
X-55127Y115075D01*
X-54620Y115242D01*
X-54240Y115575D01*
X-53860Y116075D01*
X-53733Y116742D01*
Y120075D01*
G01X-49900Y115075D02*
Y120075D01*
X-50660Y119075D01*
G01Y115075D02*
X-49140D01*
G01X-44040D02*
Y120075D01*
X-46383Y116492D01*
X-43217D01*
G01X-39000Y-101000D02*
Y-104500D01*
X-30000D01*
Y-99500D01*
G01X-51650Y-82224D02*
X-49400D01*
X-46650Y-80958D01*
G01Y-83491D02*
X-49400Y-82224D01*
G01X-51650Y-87322D02*
X-46650D01*
X-47650Y-86563D01*
G01X-51650D02*
Y-88082D01*
G01X-51534Y-90076D02*
Y-102674D01*
X-46416D01*
Y-90076D01*
X-51534D01*
G01X-36350Y-77183D02*
X-31350D01*
Y-78517D01*
X-31600Y-78943D01*
X-31933Y-79210D01*
X-32600Y-79317D01*
X-33267Y-79210D01*
X-33683Y-78890D01*
X-33933Y-78517D01*
Y-77183D01*
G01Y-78517D02*
X-36350Y-79317D01*
G01X-32183Y-81637D02*
X-31683Y-81957D01*
X-31433Y-82330D01*
X-31350Y-82757D01*
X-31517Y-83290D01*
X-31933Y-83663D01*
X-32433Y-83770D01*
X-32933Y-83717D01*
X-33350Y-83503D01*
X-34183Y-82437D01*
X-34767Y-81957D01*
X-35600Y-81637D01*
X-36350Y-81530D01*
Y-83770D01*
G01X-30000Y-92500D02*
Y-87500D01*
X-39000D01*
Y-91000D01*
G01X-43613Y-49600D02*
Y-53183D01*
X-43360Y-53933D01*
X-42854Y-54433D01*
X-42221Y-54600D01*
X-41587Y-54433D01*
X-41081Y-53933D01*
X-40828Y-53183D01*
Y-49600D01*
G01X-37123Y-54600D02*
Y-49600D01*
X-37882Y-50600D01*
G01Y-54600D02*
X-36363D01*
G01X-33417Y-53850D02*
X-33038Y-54267D01*
X-32594Y-54517D01*
X-32025Y-54600D01*
X-31455Y-54433D01*
X-31011Y-54100D01*
X-30695Y-53517D01*
X-30632Y-52850D01*
X-30758Y-52183D01*
X-31075Y-51767D01*
X-31518Y-51433D01*
X-31961Y-51350D01*
X-32404Y-51433D01*
X-32974Y-51767D01*
X-32784Y-49600D01*
X-31075D01*
G01X-44358Y-36027D02*
X-44608Y-36347D01*
X-44775Y-36720D01*
Y-37147D01*
X-44525Y-37627D01*
X-44108Y-38000D01*
X-43608Y-38267D01*
X-42775Y-38480D01*
X-42025Y-38533D01*
X-41275Y-38427D01*
X-40775Y-38267D01*
X-40275Y-37947D01*
X-39942Y-37573D01*
X-39775Y-37200D01*
Y-36827D01*
X-39942Y-36453D01*
X-40192Y-36133D01*
X-40525Y-35867D01*
G01X-43942Y-33813D02*
X-44442Y-33493D01*
X-44692Y-33120D01*
X-44775Y-32693D01*
X-44608Y-32160D01*
X-44192Y-31787D01*
X-43692Y-31680D01*
X-43192Y-31733D01*
X-42775Y-31947D01*
X-41942Y-33013D01*
X-41358Y-33493D01*
X-40525Y-33813D01*
X-39775Y-33920D01*
Y-31680D01*
G01Y-27760D02*
X-44775D01*
X-41192Y-29733D01*
Y-27067D01*
G01X-49400Y225D02*
X-45900D01*
Y9225D01*
X-50900D01*
G01X-37413Y40770D02*
Y37187D01*
X-37160Y36437D01*
X-36654Y35937D01*
X-36021Y35770D01*
X-35387Y35937D01*
X-34881Y36437D01*
X-34628Y37187D01*
Y40770D01*
G01X-30923Y35770D02*
Y40770D01*
X-31682Y39770D01*
G01Y35770D02*
X-30163D01*
G01X-39177Y55808D02*
X-39497Y56058D01*
X-39870Y56225D01*
X-40297D01*
X-40777Y55975D01*
X-41150Y55558D01*
X-41417Y55058D01*
X-41630Y54225D01*
X-41683Y53475D01*
X-41577Y52725D01*
X-41417Y52225D01*
X-41097Y51725D01*
X-40723Y51392D01*
X-40350Y51225D01*
X-39977D01*
X-39603Y51392D01*
X-39283Y51642D01*
X-39017Y51975D01*
G01X-36963Y55392D02*
X-36643Y55892D01*
X-36270Y56142D01*
X-35843Y56225D01*
X-35310Y56058D01*
X-34937Y55642D01*
X-34830Y55142D01*
X-34883Y54642D01*
X-35097Y54225D01*
X-36163Y53392D01*
X-36643Y52808D01*
X-36963Y51975D01*
X-37070Y51225D01*
X-34830D01*
G01X-34850Y69725D02*
X-39850D01*
Y60725D01*
X-36350D01*
G01X-39102Y78958D02*
X-39422Y79208D01*
X-39795Y79375D01*
X-40222D01*
X-40702Y79125D01*
X-41075Y78708D01*
X-41342Y78208D01*
X-41555Y77375D01*
X-41608Y76625D01*
X-41502Y75875D01*
X-41342Y75375D01*
X-41022Y74875D01*
X-40648Y74542D01*
X-40275Y74375D01*
X-39902D01*
X-39528Y74542D01*
X-39208Y74792D01*
X-38942Y75125D01*
G01X-35875Y74375D02*
Y79375D01*
X-36515Y78375D01*
G01Y74375D02*
X-35235D01*
G01X-32648Y75375D02*
X-32328Y74792D01*
X-31902Y74458D01*
X-31422Y74375D01*
X-30995Y74458D01*
X-30568Y74875D01*
X-30302Y75375D01*
X-30248Y75875D01*
X-30355Y76458D01*
X-30728Y76875D01*
X-31102Y77042D01*
X-31582D01*
G01X-31102D02*
X-30782Y77292D01*
X-30515Y77708D01*
X-30408Y78208D01*
X-30515Y78708D01*
X-30782Y79125D01*
X-31262Y79375D01*
X-31742Y79292D01*
X-32222Y78958D01*
G01X-34775Y92875D02*
X-39775D01*
Y83875D01*
X-36275D01*
G01X-39477Y103308D02*
X-39797Y103558D01*
X-40170Y103725D01*
X-40597D01*
X-41077Y103475D01*
X-41450Y103058D01*
X-41717Y102558D01*
X-41930Y101725D01*
X-41983Y100975D01*
X-41877Y100225D01*
X-41717Y99725D01*
X-41397Y99225D01*
X-41023Y98892D01*
X-40650Y98725D01*
X-40277D01*
X-39903Y98892D01*
X-39583Y99142D01*
X-39317Y99475D01*
G01X-36250Y98725D02*
Y103725D01*
X-36890Y102725D01*
G01Y98725D02*
X-35610D01*
G01X-32863Y102892D02*
X-32543Y103392D01*
X-32170Y103642D01*
X-31743Y103725D01*
X-31210Y103558D01*
X-30837Y103142D01*
X-30730Y102642D01*
X-30783Y102142D01*
X-30997Y101725D01*
X-32063Y100892D01*
X-32543Y100308D01*
X-32863Y99475D01*
X-32970Y98725D01*
X-30730D01*
G01X-35150Y117225D02*
X-40150D01*
Y108225D01*
X-36650D01*
G01X-39227Y127858D02*
X-39547Y128108D01*
X-39920Y128275D01*
X-40347D01*
X-40827Y128025D01*
X-41200Y127608D01*
X-41467Y127108D01*
X-41680Y126275D01*
X-41733Y125525D01*
X-41627Y124775D01*
X-41467Y124275D01*
X-41147Y123775D01*
X-40773Y123442D01*
X-40400Y123275D01*
X-40027D01*
X-39653Y123442D01*
X-39333Y123692D01*
X-39067Y124025D01*
G01X-36000Y123275D02*
Y128275D01*
X-36640Y127275D01*
G01Y123275D02*
X-35360D01*
G01X-31600D02*
Y128275D01*
X-32240Y127275D01*
G01Y123275D02*
X-30960D01*
G01X-34900Y141775D02*
X-39900D01*
Y132775D01*
X-36400D01*
G01X-27684Y-29584D02*
X27434D01*
Y25534D01*
X-27684D01*
Y-29584D01*
G01X-26350Y60725D02*
X-22850D01*
Y69725D01*
X-27850D01*
G01X-26275Y83875D02*
X-22775D01*
Y92875D01*
X-27775D01*
G01X-11918Y91500D02*
Y87917D01*
X-11665Y87167D01*
X-11158Y86667D01*
X-10525Y86500D01*
X-9892Y86667D01*
X-9385Y87167D01*
X-9132Y87917D01*
Y91500D01*
G01X-5425Y86500D02*
Y91500D01*
X-6185Y90500D01*
G01Y86500D02*
X-4665D01*
G01X-325Y91500D02*
X-832Y91333D01*
X-1212Y90917D01*
X-1465Y90417D01*
X-1655Y89750D01*
X-1718Y89000D01*
X-1655Y88250D01*
X-1465Y87583D01*
X-1212Y87083D01*
X-832Y86667D01*
X-325Y86500D01*
X182Y86667D01*
X562Y87083D01*
X815Y87583D01*
X1005Y88250D01*
X1068Y89000D01*
X1005Y89750D01*
X815Y90417D01*
X562Y90917D01*
X182Y91333D01*
X-325Y91500D01*
G01X-26650Y108225D02*
X-23150D01*
Y117225D01*
X-28150D01*
G01X-8993Y115300D02*
Y111717D01*
X-8740Y110967D01*
X-8233Y110467D01*
X-7600Y110300D01*
X-6967Y110467D01*
X-6460Y110967D01*
X-6207Y111717D01*
Y115300D01*
G01X-2500Y110300D02*
X-2057Y110383D01*
X-1550Y110633D01*
X-1233Y111050D01*
X-1107Y111633D01*
X-1233Y112217D01*
X-1613Y112717D01*
X-2183Y112967D01*
X-2817D01*
X-3197Y113133D01*
X-3513Y113550D01*
X-3640Y114133D01*
X-3450Y114717D01*
X-3007Y115133D01*
X-2500Y115300D01*
X-1993Y115133D01*
X-1550Y114717D01*
X-1360Y114133D01*
X-1487Y113550D01*
X-1803Y113133D01*
X-2183Y112967D01*
X-2817D01*
X-3387Y112717D01*
X-3767Y112217D01*
X-3893Y111633D01*
X-3767Y111050D01*
X-3450Y110633D01*
X-2943Y110383D01*
X-2500Y110300D01*
G01X-26400Y132775D02*
X-22900D01*
Y141775D01*
X-27900D01*
G01X-8868Y139475D02*
Y135892D01*
X-8615Y135142D01*
X-8108Y134642D01*
X-7475Y134475D01*
X-6842Y134642D01*
X-6335Y135142D01*
X-6082Y135892D01*
Y139475D01*
G01X-3578Y136558D02*
X-3135Y137142D01*
X-2755Y137475D01*
X-2248Y137642D01*
X-1805Y137475D01*
X-1488Y137142D01*
X-1235Y136642D01*
X-1172Y136058D01*
X-1235Y135558D01*
X-1488Y135058D01*
X-1868Y134642D01*
X-2312Y134475D01*
X-2818Y134642D01*
X-3262Y135142D01*
X-3515Y135892D01*
X-3578Y136725D01*
X-3452Y137808D01*
X-3262Y138392D01*
X-2945Y138975D01*
X-2502Y139392D01*
X-2058Y139475D01*
X-1615Y139308D01*
X-1298Y138892D01*
G01X13907Y-123550D02*
Y-121050D01*
X14600Y-123133D01*
X15293Y-121050D01*
Y-123550D01*
G01X17387Y-121258D02*
X17227Y-121133D01*
X17040Y-121050D01*
X16827D01*
X16587Y-121175D01*
X16400Y-121383D01*
X16267Y-121633D01*
X16160Y-122050D01*
X16133Y-122425D01*
X16187Y-122800D01*
X16267Y-123050D01*
X16427Y-123300D01*
X16613Y-123467D01*
X16800Y-123550D01*
X16987D01*
X17173Y-123467D01*
X17333Y-123342D01*
X17467Y-123175D01*
G01X18467Y-123550D02*
Y-121050D01*
X19107D01*
X19320Y-121175D01*
X19480Y-121467D01*
X19533Y-121800D01*
X19480Y-122133D01*
X19347Y-122383D01*
X19107Y-122508D01*
X18467D01*
G01X21520Y-123550D02*
Y-121050D01*
X20533Y-122842D01*
X21867D01*
G01X23400Y-123550D02*
Y-121050D01*
X23080Y-121550D01*
G01Y-123550D02*
X23720D01*
G01X25013Y-123050D02*
X25173Y-123342D01*
X25387Y-123508D01*
X25627Y-123550D01*
X25840Y-123508D01*
X26053Y-123300D01*
X26187Y-123050D01*
X26213Y-122800D01*
X26160Y-122508D01*
X25973Y-122300D01*
X25787Y-122217D01*
X25547D01*
G01X25787D02*
X25947Y-122092D01*
X26080Y-121883D01*
X26133Y-121633D01*
X26080Y-121383D01*
X25947Y-121175D01*
X25707Y-121050D01*
X25467Y-121092D01*
X25227Y-121258D01*
G01X27800Y-123550D02*
Y-121050D01*
X27480Y-121550D01*
G01Y-123550D02*
X28120D01*
G01X13200Y-119725D02*
Y-99725D01*
X26700D01*
Y-119725D01*
X13200D01*
G01X17200Y-102225D02*
G03I-1000J0D01*
G01X14950Y-99725D02*
Y-119725D01*
G01X12413Y-96225D02*
Y-98017D01*
X12520Y-98392D01*
X12733Y-98642D01*
X13000Y-98725D01*
X13267Y-98642D01*
X13480Y-98392D01*
X13587Y-98017D01*
Y-96225D01*
G01X14693Y-96642D02*
X14853Y-96392D01*
X15040Y-96267D01*
X15253Y-96225D01*
X15520Y-96308D01*
X15707Y-96517D01*
X15760Y-96767D01*
X15733Y-97017D01*
X15627Y-97225D01*
X15093Y-97642D01*
X14853Y-97933D01*
X14693Y-98350D01*
X14640Y-98725D01*
X15760D01*
G01X17400Y-96225D02*
X17187Y-96308D01*
X17027Y-96517D01*
X16920Y-96767D01*
X16840Y-97100D01*
X16813Y-97475D01*
X16840Y-97850D01*
X16920Y-98183D01*
X17027Y-98433D01*
X17187Y-98642D01*
X17400Y-98725D01*
X17613Y-98642D01*
X17773Y-98433D01*
X17880Y-98183D01*
X17960Y-97850D01*
X17987Y-97475D01*
X17960Y-97100D01*
X17880Y-96767D01*
X17773Y-96517D01*
X17613Y-96308D01*
X17400Y-96225D01*
G01X10775Y-51558D02*
X15775D01*
Y-52892D01*
X15525Y-53318D01*
X15192Y-53585D01*
X14525Y-53692D01*
X13858Y-53585D01*
X13442Y-53265D01*
X13192Y-52892D01*
Y-51558D01*
G01Y-52892D02*
X10775Y-53692D01*
G01X11775Y-55852D02*
X11192Y-56172D01*
X10858Y-56598D01*
X10775Y-57078D01*
X10858Y-57505D01*
X11275Y-57932D01*
X11775Y-58198D01*
X12275Y-58252D01*
X12858Y-58145D01*
X13275Y-57772D01*
X13442Y-57398D01*
Y-56918D01*
G01Y-57398D02*
X13692Y-57718D01*
X14108Y-57985D01*
X14608Y-58092D01*
X15108Y-57985D01*
X15525Y-57718D01*
X15775Y-57238D01*
X15692Y-56758D01*
X15358Y-56278D01*
G01X16975Y-66000D02*
Y-61000D01*
X7975D01*
Y-64500D01*
G01Y-74500D02*
Y-78000D01*
X16975D01*
Y-73000D01*
G01X14448Y57433D02*
X14128Y57683D01*
X13755Y57850D01*
X13328D01*
X12848Y57600D01*
X12475Y57183D01*
X12208Y56683D01*
X11995Y55850D01*
X11942Y55100D01*
X12048Y54350D01*
X12208Y53850D01*
X12528Y53350D01*
X12902Y53017D01*
X13275Y52850D01*
X13648D01*
X14022Y53017D01*
X14342Y53267D01*
X14608Y53600D01*
G01X18315Y52850D02*
Y57850D01*
X16342Y54267D01*
X19008D01*
G01X18775Y71350D02*
X13775D01*
Y62350D01*
X17275D01*
G01X14398Y80983D02*
X14078Y81233D01*
X13705Y81400D01*
X13278D01*
X12798Y81150D01*
X12425Y80733D01*
X12158Y80233D01*
X11945Y79400D01*
X11892Y78650D01*
X11998Y77900D01*
X12158Y77400D01*
X12478Y76900D01*
X12852Y76567D01*
X13225Y76400D01*
X13598D01*
X13972Y76567D01*
X14292Y76817D01*
X14558Y77150D01*
G01X17625Y76400D02*
Y81400D01*
X16985Y80400D01*
G01Y76400D02*
X18265D01*
G01X21012Y78483D02*
X21385Y79067D01*
X21705Y79400D01*
X22132Y79567D01*
X22505Y79400D01*
X22772Y79067D01*
X22985Y78567D01*
X23038Y77983D01*
X22985Y77483D01*
X22772Y76983D01*
X22452Y76567D01*
X22078Y76400D01*
X21652Y76567D01*
X21278Y77067D01*
X21065Y77817D01*
X21012Y78650D01*
X21118Y79733D01*
X21278Y80317D01*
X21545Y80900D01*
X21918Y81317D01*
X22292Y81400D01*
X22665Y81233D01*
X22932Y80817D01*
G01X18725Y94900D02*
X13725D01*
Y85900D01*
X17225D01*
G01X14273Y103633D02*
X13953Y103883D01*
X13580Y104050D01*
X13153D01*
X12673Y103800D01*
X12300Y103383D01*
X12033Y102883D01*
X11820Y102050D01*
X11767Y101300D01*
X11873Y100550D01*
X12033Y100050D01*
X12353Y99550D01*
X12727Y99217D01*
X13100Y99050D01*
X13473D01*
X13847Y99217D01*
X14167Y99467D01*
X14433Y99800D01*
G01X17500Y99050D02*
Y104050D01*
X16860Y103050D01*
G01Y99050D02*
X18140D01*
G01X20727Y99800D02*
X21047Y99383D01*
X21420Y99133D01*
X21900Y99050D01*
X22380Y99217D01*
X22753Y99550D01*
X23020Y100133D01*
X23073Y100800D01*
X22967Y101467D01*
X22700Y101883D01*
X22327Y102217D01*
X21953Y102300D01*
X21580Y102217D01*
X21100Y101883D01*
X21260Y104050D01*
X22700D01*
G01X18600Y117550D02*
X13600D01*
Y108550D01*
X17100D01*
G01X14148Y127608D02*
X13828Y127858D01*
X13455Y128025D01*
X13028D01*
X12548Y127775D01*
X12175Y127358D01*
X11908Y126858D01*
X11695Y126025D01*
X11642Y125275D01*
X11748Y124525D01*
X11908Y124025D01*
X12228Y123525D01*
X12602Y123192D01*
X12975Y123025D01*
X13348D01*
X13722Y123192D01*
X14042Y123442D01*
X14308Y123775D01*
G01X17375Y123025D02*
Y128025D01*
X16735Y127025D01*
G01Y123025D02*
X18015D01*
G01X22415D02*
Y128025D01*
X20442Y124442D01*
X23108D01*
G01X18475Y141525D02*
X13475D01*
Y132525D01*
X16975D01*
G01X34307Y-109725D02*
Y-107225D01*
X35000Y-109308D01*
X35693Y-107225D01*
Y-109725D01*
G01X37787Y-107433D02*
X37627Y-107308D01*
X37440Y-107225D01*
X37227D01*
X36987Y-107350D01*
X36800Y-107558D01*
X36667Y-107808D01*
X36560Y-108225D01*
X36533Y-108600D01*
X36587Y-108975D01*
X36667Y-109225D01*
X36827Y-109475D01*
X37013Y-109642D01*
X37200Y-109725D01*
X37387D01*
X37573Y-109642D01*
X37733Y-109517D01*
X37867Y-109350D01*
G01X38867Y-109725D02*
Y-107225D01*
X39507D01*
X39720Y-107350D01*
X39880Y-107642D01*
X39933Y-107975D01*
X39880Y-108308D01*
X39747Y-108558D01*
X39507Y-108683D01*
X38867D01*
G01X41920Y-109725D02*
Y-107225D01*
X40933Y-109017D01*
X42267D01*
G01X43800Y-109725D02*
Y-107225D01*
X43480Y-107725D01*
G01Y-109725D02*
X44120D01*
G01X45413Y-109225D02*
X45573Y-109517D01*
X45787Y-109683D01*
X46027Y-109725D01*
X46240Y-109683D01*
X46453Y-109475D01*
X46587Y-109225D01*
X46613Y-108975D01*
X46560Y-108683D01*
X46373Y-108475D01*
X46187Y-108392D01*
X45947D01*
G01X46187D02*
X46347Y-108267D01*
X46480Y-108058D01*
X46533Y-107808D01*
X46480Y-107558D01*
X46347Y-107350D01*
X46107Y-107225D01*
X45867Y-107267D01*
X45627Y-107433D01*
G01X48200Y-109725D02*
Y-107225D01*
X47880Y-107725D01*
G01Y-109725D02*
X48520D01*
G01X49600Y-110558D02*
X51200D01*
G01X52040Y-109392D02*
X52253Y-109600D01*
X52493Y-109725D01*
X52707D01*
X52920Y-109600D01*
X53080Y-109392D01*
X53160Y-109100D01*
X53107Y-108808D01*
X52973Y-108558D01*
X52733Y-108392D01*
X52413Y-108308D01*
X52227Y-108142D01*
X52147Y-107850D01*
X52200Y-107558D01*
X52333Y-107350D01*
X52520Y-107225D01*
X52707D01*
X52893Y-107308D01*
X53053Y-107517D01*
G01X54800Y-109725D02*
X54587Y-109683D01*
X54400Y-109517D01*
X54240Y-109267D01*
X54133Y-108975D01*
X54080Y-108642D01*
Y-108308D01*
X54133Y-107975D01*
X54240Y-107683D01*
X54400Y-107433D01*
X54587Y-107267D01*
X54800Y-107225D01*
X55013Y-107267D01*
X55200Y-107433D01*
X55360Y-107683D01*
X55467Y-107975D01*
X55520Y-108308D01*
Y-108642D01*
X55467Y-108975D01*
X55360Y-109267D01*
X55200Y-109517D01*
X55013Y-109683D01*
X54800Y-109725D01*
G01X56680Y-107225D02*
X57320D01*
G01X57000D02*
Y-109725D01*
G01X56680D02*
X57320D01*
G01X59787Y-107433D02*
X59627Y-107308D01*
X59440Y-107225D01*
X59227D01*
X58987Y-107350D01*
X58800Y-107558D01*
X58667Y-107808D01*
X58560Y-108225D01*
X58533Y-108600D01*
X58587Y-108975D01*
X58667Y-109225D01*
X58827Y-109475D01*
X59013Y-109642D01*
X59200Y-109725D01*
X59387D01*
X59573Y-109642D01*
X59733Y-109517D01*
X59867Y-109350D01*
G01X61400Y-109725D02*
X61587Y-109683D01*
X61800Y-109558D01*
X61933Y-109350D01*
X61987Y-109058D01*
X61933Y-108767D01*
X61773Y-108517D01*
X61533Y-108392D01*
X61267D01*
X61107Y-108308D01*
X60973Y-108100D01*
X60920Y-107808D01*
X61000Y-107517D01*
X61187Y-107308D01*
X61400Y-107225D01*
X61613Y-107308D01*
X61800Y-107517D01*
X61880Y-107808D01*
X61827Y-108100D01*
X61693Y-108308D01*
X61533Y-108392D01*
X61267D01*
X61027Y-108517D01*
X60867Y-108767D01*
X60813Y-109058D01*
X60867Y-109350D01*
X61000Y-109558D01*
X61213Y-109683D01*
X61400Y-109725D01*
G01X62800Y-110558D02*
X64400D01*
G01X65107Y-109725D02*
Y-107225D01*
X65800Y-109308D01*
X66493Y-107225D01*
Y-109725D01*
G01X68587Y-107433D02*
X68427Y-107308D01*
X68240Y-107225D01*
X68027D01*
X67787Y-107350D01*
X67600Y-107558D01*
X67467Y-107808D01*
X67360Y-108225D01*
X67333Y-108600D01*
X67387Y-108975D01*
X67467Y-109225D01*
X67627Y-109475D01*
X67813Y-109642D01*
X68000Y-109725D01*
X68187D01*
X68373Y-109642D01*
X68533Y-109517D01*
X68667Y-109350D01*
G01X69667Y-109725D02*
Y-107225D01*
X70307D01*
X70520Y-107350D01*
X70680Y-107642D01*
X70733Y-107975D01*
X70680Y-108308D01*
X70547Y-108558D01*
X70307Y-108683D01*
X69667D01*
G01X72720Y-109725D02*
Y-107225D01*
X71733Y-109017D01*
X73067D01*
G01X74600Y-109725D02*
Y-107225D01*
X74280Y-107725D01*
G01Y-109725D02*
X74920D01*
G01X76213Y-109225D02*
X76373Y-109517D01*
X76587Y-109683D01*
X76827Y-109725D01*
X77040Y-109683D01*
X77253Y-109475D01*
X77387Y-109225D01*
X77413Y-108975D01*
X77360Y-108683D01*
X77173Y-108475D01*
X76987Y-108392D01*
X76747D01*
G01X76987D02*
X77147Y-108267D01*
X77280Y-108058D01*
X77333Y-107808D01*
X77280Y-107558D01*
X77147Y-107350D01*
X76907Y-107225D01*
X76667Y-107267D01*
X76427Y-107433D01*
G01X79000Y-109725D02*
Y-107225D01*
X78680Y-107725D01*
G01Y-109725D02*
X79320D01*
G01X27575Y-52058D02*
X32575D01*
Y-53392D01*
X32325Y-53818D01*
X31992Y-54085D01*
X31325Y-54192D01*
X30658Y-54085D01*
X30242Y-53765D01*
X29992Y-53392D01*
Y-52058D01*
G01Y-53392D02*
X27575Y-54192D01*
G01Y-58165D02*
X32575D01*
X28992Y-56192D01*
Y-58858D01*
G01X33275Y-66025D02*
Y-61025D01*
X24275D01*
Y-64525D01*
G01Y-74525D02*
Y-78025D01*
X33275D01*
Y-73025D01*
G01X27275Y62350D02*
X30775D01*
Y71350D01*
X25775D01*
G01X27225Y85900D02*
X30725D01*
Y94900D01*
X25725D01*
G01X27100Y108550D02*
X30600D01*
Y117550D01*
X25600D01*
G01X26975Y132525D02*
X30475D01*
Y141525D01*
X25475D01*
G01X49808Y-56875D02*
Y-51875D01*
X51142D01*
X51568Y-52125D01*
X51835Y-52458D01*
X51942Y-53125D01*
X51835Y-53792D01*
X51515Y-54208D01*
X51142Y-54458D01*
X49808D01*
G01X51142D02*
X51942Y-56875D01*
G01X55275D02*
Y-51875D01*
X54635Y-52875D01*
G01Y-56875D02*
X55915D01*
G01X63100Y-48250D02*
X58100D01*
Y-57250D01*
X61600D01*
G01X54258Y33875D02*
X54575Y33375D01*
X54955Y33042D01*
X55398Y32875D01*
X55905Y33042D01*
X56285Y33375D01*
X56665Y33875D01*
X56792Y34542D01*
Y37875D01*
G01X60625Y32875D02*
Y37875D01*
X59865Y36875D01*
G01Y32875D02*
X61385D01*
G01X47857Y125925D02*
Y122342D01*
X48110Y121592D01*
X48617Y121092D01*
X49250Y120925D01*
X49883Y121092D01*
X50390Y121592D01*
X50643Y122342D01*
Y125925D01*
G01X54223Y120925D02*
X54350Y122008D01*
X54540Y122925D01*
X54793Y123758D01*
X55110Y124675D01*
X55617Y125925D01*
X53083D01*
G01X46207Y103875D02*
Y100292D01*
X46460Y99542D01*
X46967Y99042D01*
X47600Y98875D01*
X48233Y99042D01*
X48740Y99542D01*
X48993Y100292D01*
Y103875D01*
G01X51623Y99458D02*
X52067Y99042D01*
X52573Y98875D01*
X53080Y99042D01*
X53523Y99542D01*
X53840Y100292D01*
X53967Y101042D01*
Y101958D01*
X53840Y102708D01*
X53523Y103375D01*
X53143Y103708D01*
X52700Y103875D01*
X52193Y103708D01*
X51813Y103375D01*
X51560Y102875D01*
X51433Y102208D01*
X51560Y101625D01*
X51877Y101042D01*
X52257Y100708D01*
X52700Y100625D01*
X53207Y100792D01*
X53587Y101208D01*
X53967Y101958D01*
G01X48857Y148825D02*
Y145242D01*
X49110Y144492D01*
X49617Y143992D01*
X50250Y143825D01*
X50883Y143992D01*
X51390Y144492D01*
X51643Y145242D01*
Y148825D01*
G01X53957Y144575D02*
X54337Y144158D01*
X54780Y143908D01*
X55350Y143825D01*
X55920Y143992D01*
X56363Y144325D01*
X56680Y144908D01*
X56743Y145575D01*
X56617Y146242D01*
X56300Y146658D01*
X55857Y146992D01*
X55413Y147075D01*
X54970Y146992D01*
X54400Y146658D01*
X54590Y148825D01*
X56300D01*
G01X121600Y-135525D02*
Y-124525D01*
X76600D01*
Y-135525D01*
X121600D01*
G01X78208Y-88775D02*
Y-83775D01*
X79542D01*
X79968Y-84025D01*
X80235Y-84358D01*
X80342Y-85025D01*
X80235Y-85692D01*
X79915Y-86108D01*
X79542Y-86358D01*
X78208D01*
G01X79542D02*
X80342Y-88775D01*
G01X84315D02*
Y-83775D01*
X82342Y-87358D01*
X85008D01*
G01X88075Y-83775D02*
X87648Y-83942D01*
X87328Y-84358D01*
X87115Y-84858D01*
X86955Y-85525D01*
X86902Y-86275D01*
X86955Y-87025D01*
X87115Y-87692D01*
X87328Y-88192D01*
X87648Y-88608D01*
X88075Y-88775D01*
X88502Y-88608D01*
X88822Y-88192D01*
X89035Y-87692D01*
X89195Y-87025D01*
X89248Y-86275D01*
X89195Y-85525D01*
X89035Y-84858D01*
X88822Y-84358D01*
X88502Y-83942D01*
X88075Y-83775D01*
G01X84775Y-70275D02*
X79775D01*
Y-79275D01*
X83275D01*
G01X93275D02*
X96775D01*
Y-70275D01*
X91775D01*
G01X71600Y-57250D02*
X75100D01*
Y-48250D01*
X70100D01*
G01X77808Y-66625D02*
Y-61625D01*
X79142D01*
X79568Y-61875D01*
X79835Y-62208D01*
X79942Y-62875D01*
X79835Y-63542D01*
X79515Y-63958D01*
X79142Y-64208D01*
X77808D01*
G01X79142D02*
X79942Y-66625D01*
G01X82262Y-62458D02*
X82582Y-61958D01*
X82955Y-61708D01*
X83382Y-61625D01*
X83915Y-61792D01*
X84288Y-62208D01*
X84395Y-62708D01*
X84342Y-63208D01*
X84128Y-63625D01*
X83062Y-64458D01*
X82582Y-65042D01*
X82262Y-65875D01*
X82155Y-66625D01*
X84395D01*
G01X88315D02*
Y-61625D01*
X86342Y-65208D01*
X89008D01*
G01X84375Y-48125D02*
X79375D01*
Y-57125D01*
X82875D01*
G01X92875D02*
X96375D01*
Y-48125D01*
X91375D01*
G01X73523Y68908D02*
X73203Y69158D01*
X72830Y69325D01*
X72403D01*
X71923Y69075D01*
X71550Y68658D01*
X71283Y68158D01*
X71070Y67325D01*
X71017Y66575D01*
X71123Y65825D01*
X71283Y65325D01*
X71603Y64825D01*
X71977Y64492D01*
X72350Y64325D01*
X72723D01*
X73097Y64492D01*
X73417Y64742D01*
X73683Y65075D01*
G01X75577Y65325D02*
X75897Y64742D01*
X76323Y64408D01*
X76803Y64325D01*
X77230Y64408D01*
X77657Y64825D01*
X77923Y65325D01*
X77977Y65825D01*
X77870Y66408D01*
X77497Y66825D01*
X77123Y66992D01*
X76643D01*
G01X77123D02*
X77443Y67242D01*
X77710Y67658D01*
X77817Y68158D01*
X77710Y68658D01*
X77443Y69075D01*
X76963Y69325D01*
X76483Y69242D01*
X76003Y68908D01*
G01X79977Y65075D02*
X80297Y64658D01*
X80670Y64408D01*
X81150Y64325D01*
X81630Y64492D01*
X82003Y64825D01*
X82270Y65408D01*
X82323Y66075D01*
X82217Y66742D01*
X81950Y67158D01*
X81577Y67492D01*
X81203Y67575D01*
X80830Y67492D01*
X80350Y67158D01*
X80510Y69325D01*
X81950D01*
G01X89650Y70850D02*
X84650D01*
Y61850D01*
X88150D01*
G01X71808Y95875D02*
Y100875D01*
X73142D01*
X73568Y100625D01*
X73835Y100292D01*
X73942Y99625D01*
X73835Y98958D01*
X73515Y98542D01*
X73142Y98292D01*
X71808D01*
G01X73142D02*
X73942Y95875D01*
G01X77275D02*
Y100875D01*
X76635Y99875D01*
G01Y95875D02*
X77915D01*
G01X80502Y96875D02*
X80822Y96292D01*
X81248Y95958D01*
X81728Y95875D01*
X82155Y95958D01*
X82582Y96375D01*
X82848Y96875D01*
X82902Y97375D01*
X82795Y97958D01*
X82422Y98375D01*
X82048Y98542D01*
X81568D01*
G01X82048D02*
X82368Y98792D01*
X82635Y99208D01*
X82742Y99708D01*
X82635Y100208D01*
X82368Y100625D01*
X81888Y100875D01*
X81408Y100792D01*
X80928Y100458D01*
G01X89600Y103025D02*
X84600D01*
Y94025D01*
X88100D01*
G01X73848Y81958D02*
X73528Y82208D01*
X73155Y82375D01*
X72728D01*
X72248Y82125D01*
X71875Y81708D01*
X71608Y81208D01*
X71395Y80375D01*
X71342Y79625D01*
X71448Y78875D01*
X71608Y78375D01*
X71928Y77875D01*
X72302Y77542D01*
X72675Y77375D01*
X73048D01*
X73422Y77542D01*
X73742Y77792D01*
X74008Y78125D01*
G01X75902Y78375D02*
X76222Y77792D01*
X76648Y77458D01*
X77128Y77375D01*
X77555Y77458D01*
X77982Y77875D01*
X78248Y78375D01*
X78302Y78875D01*
X78195Y79458D01*
X77822Y79875D01*
X77448Y80042D01*
X76968D01*
G01X77448D02*
X77768Y80292D01*
X78035Y80708D01*
X78142Y81208D01*
X78035Y81708D01*
X77768Y82125D01*
X77288Y82375D01*
X76808Y82292D01*
X76328Y81958D01*
G01X80462Y79458D02*
X80835Y80042D01*
X81155Y80375D01*
X81582Y80542D01*
X81955Y80375D01*
X82222Y80042D01*
X82435Y79542D01*
X82488Y78958D01*
X82435Y78458D01*
X82222Y77958D01*
X81902Y77542D01*
X81528Y77375D01*
X81102Y77542D01*
X80728Y78042D01*
X80515Y78792D01*
X80462Y79625D01*
X80568Y80708D01*
X80728Y81292D01*
X80995Y81875D01*
X81368Y82292D01*
X81742Y82375D01*
X82115Y82208D01*
X82382Y81792D01*
G01X89400Y85425D02*
X84400D01*
Y76425D01*
X87900D01*
G01X90800Y115150D02*
X90883Y115657D01*
X91217Y116100D01*
X91717Y116480D01*
X92300Y116733D01*
X92967Y116860D01*
X93633D01*
X94300Y116733D01*
X94883Y116480D01*
X95383Y116100D01*
X95717Y115657D01*
X95800Y115150D01*
X95717Y114643D01*
X95383Y114200D01*
X94883Y113820D01*
X94300Y113567D01*
X93633Y113440D01*
X92967D01*
X92300Y113567D01*
X91717Y113820D01*
X91217Y114200D01*
X90883Y114643D01*
X90800Y115150D01*
G01X92133Y114643D02*
X90800Y113883D01*
G01Y110050D02*
X95800D01*
X94800Y110810D01*
G01X90800D02*
Y109290D01*
G01X71433Y124875D02*
Y129875D01*
X72767D01*
X73193Y129625D01*
X73460Y129292D01*
X73567Y128625D01*
X73460Y127958D01*
X73140Y127542D01*
X72767Y127292D01*
X71433D01*
G01X72767D02*
X73567Y124875D01*
G01X76900D02*
Y129875D01*
X76260Y128875D01*
G01Y124875D02*
X77540D01*
G01X80287Y129042D02*
X80607Y129542D01*
X80980Y129792D01*
X81407Y129875D01*
X81940Y129708D01*
X82313Y129292D01*
X82420Y128792D01*
X82367Y128292D01*
X82153Y127875D01*
X81087Y127042D01*
X80607Y126458D01*
X80287Y125625D01*
X80180Y124875D01*
X82420D01*
G01X89475Y132575D02*
X84475D01*
Y123575D01*
X87975D01*
G01X98100Y-122792D02*
X98600Y-122475D01*
X98933Y-122095D01*
X99100Y-121652D01*
X98933Y-121145D01*
X98600Y-120765D01*
X98100Y-120385D01*
X97433Y-120258D01*
X94100D01*
G01X99100Y-116425D02*
X94100D01*
X95100Y-117185D01*
G01X99100D02*
Y-115665D01*
G01X94933Y-112528D02*
X94433Y-112148D01*
X94183Y-111705D01*
X94100Y-111198D01*
X94267Y-110565D01*
X94683Y-110122D01*
X95183Y-109995D01*
X95683Y-110058D01*
X96100Y-110312D01*
X96933Y-111578D01*
X97517Y-112148D01*
X98350Y-112528D01*
X99100Y-112655D01*
Y-109995D01*
G01X99827Y-88775D02*
Y-83775D01*
X100893D01*
X101320Y-84025D01*
X101640Y-84358D01*
X101907Y-84858D01*
X102120Y-85442D01*
X102173Y-86275D01*
X102120Y-87108D01*
X101907Y-87692D01*
X101640Y-88192D01*
X101320Y-88525D01*
X100893Y-88775D01*
X99827D01*
G01X105400D02*
Y-83775D01*
X104760Y-84775D01*
G01Y-88775D02*
X106040D01*
G01X110440D02*
Y-83775D01*
X108467Y-87358D01*
X111133D01*
G01X106500Y-70275D02*
X101500D01*
Y-79275D01*
X105000D01*
G01X115000D02*
X118500D01*
Y-70275D01*
X113500D01*
G01X113150Y-57125D02*
X118150D01*
Y-48125D01*
X114650D01*
G01X104650D02*
X101150D01*
Y-57125D01*
X106150D01*
G01X119261Y-32171D02*
Y-12879D01*
X98789D01*
Y-32171D01*
X119261D01*
G01X115280Y-2667D02*
X114774Y-2250D01*
X114204Y-2000D01*
X113697D01*
X113191Y-2250D01*
X112811Y-2667D01*
X112621Y-3250D01*
X112747Y-3833D01*
X113064Y-4333D01*
X113634Y-4667D01*
X114394Y-4833D01*
X114837Y-5167D01*
X115027Y-5750D01*
X114900Y-6333D01*
X114584Y-6750D01*
X114140Y-7000D01*
X113697D01*
X113254Y-6833D01*
X112874Y-6417D01*
G01X110752Y-7000D02*
X109866Y-2000D01*
X108853Y-7000D01*
X107839Y-2000D01*
X106953Y-7000D01*
G01X103755Y-2000D02*
Y-7000D01*
X104514Y-6000D01*
G01Y-2000D02*
X102995D01*
G01X98150Y61850D02*
X101650D01*
Y70850D01*
X96650D01*
G01X98100Y94025D02*
X101600D01*
Y103025D01*
X96600D01*
G01X97900Y76425D02*
X101400D01*
Y85425D01*
X96400D01*
G01X97975Y123575D02*
X101475D01*
Y132575D01*
X96475D01*
G01X111300Y134675D02*
Y123675D01*
X156300D01*
Y134675D01*
X111300D01*
G01X141975Y-123175D02*
X136975D01*
Y-132175D01*
X140475D01*
G01X140075Y-89850D02*
X136575D01*
Y-98850D01*
X141575D01*
G01Y-74075D02*
X136575D01*
Y-83075D01*
X140075D01*
G01X121177Y-54750D02*
Y-49750D01*
X122243D01*
X122670Y-50000D01*
X122990Y-50333D01*
X123257Y-50833D01*
X123470Y-51417D01*
X123523Y-52250D01*
X123470Y-53083D01*
X123257Y-53667D01*
X122990Y-54167D01*
X122670Y-54500D01*
X122243Y-54750D01*
X121177D01*
G01X125737Y-52667D02*
X126110Y-52083D01*
X126430Y-51750D01*
X126857Y-51583D01*
X127230Y-51750D01*
X127497Y-52083D01*
X127710Y-52583D01*
X127763Y-53167D01*
X127710Y-53667D01*
X127497Y-54167D01*
X127177Y-54583D01*
X126803Y-54750D01*
X126377Y-54583D01*
X126003Y-54083D01*
X125790Y-53333D01*
X125737Y-52500D01*
X125843Y-51417D01*
X126003Y-50833D01*
X126270Y-50250D01*
X126643Y-49833D01*
X127017Y-49750D01*
X127390Y-49917D01*
X127657Y-50333D01*
G01X143325Y-59450D02*
X143408Y-58943D01*
X143742Y-58500D01*
X144242Y-58120D01*
X144825Y-57867D01*
X145492Y-57740D01*
X146158D01*
X146825Y-57867D01*
X147408Y-58120D01*
X147908Y-58500D01*
X148242Y-58943D01*
X148325Y-59450D01*
X148242Y-59957D01*
X147908Y-60400D01*
X147408Y-60780D01*
X146825Y-61033D01*
X146158Y-61160D01*
X145492D01*
X144825Y-61033D01*
X144242Y-60780D01*
X143742Y-60400D01*
X143408Y-59957D01*
X143325Y-59450D01*
G01X144658Y-59957D02*
X143325Y-60717D01*
G01X144325Y-63157D02*
X143742Y-63537D01*
X143408Y-64043D01*
X143325Y-64613D01*
X143408Y-65120D01*
X143825Y-65627D01*
X144325Y-65943D01*
X144825Y-66007D01*
X145408Y-65880D01*
X145825Y-65437D01*
X145992Y-64993D01*
Y-64423D01*
G01Y-64993D02*
X146242Y-65373D01*
X146658Y-65690D01*
X147158Y-65817D01*
X147658Y-65690D01*
X148075Y-65373D01*
X148325Y-64803D01*
X148242Y-64233D01*
X147908Y-63663D01*
G01X141475Y-40875D02*
X136475D01*
Y-49875D01*
X139975D01*
G01X161725Y-133042D02*
X156725D01*
Y-131708D01*
X156975Y-131282D01*
X157308Y-131015D01*
X157975Y-130908D01*
X158642Y-131015D01*
X159058Y-131335D01*
X159308Y-131708D01*
Y-133042D01*
G01Y-131708D02*
X161725Y-130908D01*
G01X157558Y-128588D02*
X157058Y-128268D01*
X156808Y-127895D01*
X156725Y-127468D01*
X156892Y-126935D01*
X157308Y-126562D01*
X157808Y-126455D01*
X158308Y-126508D01*
X158725Y-126722D01*
X159558Y-127788D01*
X160142Y-128268D01*
X160975Y-128588D01*
X161725Y-128695D01*
Y-126455D01*
G01X156725Y-123175D02*
X156892Y-123602D01*
X157308Y-123922D01*
X157808Y-124135D01*
X158475Y-124295D01*
X159225Y-124348D01*
X159975Y-124295D01*
X160642Y-124135D01*
X161142Y-123922D01*
X161558Y-123602D01*
X161725Y-123175D01*
X161558Y-122748D01*
X161142Y-122428D01*
X160642Y-122215D01*
X159975Y-122055D01*
X159225Y-122002D01*
X158475Y-122055D01*
X157808Y-122215D01*
X157308Y-122428D01*
X156892Y-122748D01*
X156725Y-123175D01*
G01X150475Y-132175D02*
X153975D01*
Y-123175D01*
X148975D01*
G01X145225Y-108025D02*
X145308Y-107518D01*
X145642Y-107075D01*
X146142Y-106695D01*
X146725Y-106442D01*
X147392Y-106315D01*
X148058D01*
X148725Y-106442D01*
X149308Y-106695D01*
X149808Y-107075D01*
X150142Y-107518D01*
X150225Y-108025D01*
X150142Y-108532D01*
X149808Y-108975D01*
X149308Y-109355D01*
X148725Y-109608D01*
X148058Y-109735D01*
X147392D01*
X146725Y-109608D01*
X146142Y-109355D01*
X145642Y-108975D01*
X145308Y-108532D01*
X145225Y-108025D01*
G01X146558Y-108532D02*
X145225Y-109292D01*
G01X149392Y-111922D02*
X149892Y-112302D01*
X150142Y-112745D01*
X150225Y-113252D01*
X150058Y-113885D01*
X149642Y-114328D01*
X149142Y-114455D01*
X148642Y-114392D01*
X148225Y-114138D01*
X147392Y-112872D01*
X146808Y-112302D01*
X145975Y-111922D01*
X145225Y-111795D01*
Y-114455D01*
G01X161175Y-98992D02*
X156175D01*
Y-97658D01*
X156425Y-97232D01*
X156758Y-96965D01*
X157425Y-96858D01*
X158092Y-96965D01*
X158508Y-97285D01*
X158758Y-97658D01*
Y-98992D01*
G01Y-97658D02*
X161175Y-96858D01*
G01X157008Y-94538D02*
X156508Y-94218D01*
X156258Y-93845D01*
X156175Y-93418D01*
X156342Y-92885D01*
X156758Y-92512D01*
X157258Y-92405D01*
X157758Y-92458D01*
X158175Y-92672D01*
X159008Y-93738D01*
X159592Y-94218D01*
X160425Y-94538D01*
X161175Y-94645D01*
Y-92405D01*
G01Y-89125D02*
X156175D01*
X157175Y-89765D01*
G01X161175D02*
Y-88485D01*
G01X148575Y-98850D02*
X153575D01*
Y-89850D01*
X150075D01*
G01X161075Y-83842D02*
X156075D01*
Y-82508D01*
X156325Y-82082D01*
X156658Y-81815D01*
X157325Y-81708D01*
X157992Y-81815D01*
X158408Y-82135D01*
X158658Y-82508D01*
Y-83842D01*
G01Y-82508D02*
X161075Y-81708D01*
G01X156908Y-79388D02*
X156408Y-79068D01*
X156158Y-78695D01*
X156075Y-78268D01*
X156242Y-77735D01*
X156658Y-77362D01*
X157158Y-77255D01*
X157658Y-77308D01*
X158075Y-77522D01*
X158908Y-78588D01*
X159492Y-79068D01*
X160325Y-79388D01*
X161075Y-79495D01*
Y-77255D01*
G01X160075Y-75148D02*
X160658Y-74828D01*
X160992Y-74402D01*
X161075Y-73922D01*
X160992Y-73495D01*
X160575Y-73068D01*
X160075Y-72802D01*
X159575Y-72748D01*
X158992Y-72855D01*
X158575Y-73228D01*
X158408Y-73602D01*
Y-74082D01*
G01Y-73602D02*
X158158Y-73282D01*
X157742Y-73015D01*
X157242Y-72908D01*
X156742Y-73015D01*
X156325Y-73282D01*
X156075Y-73762D01*
X156158Y-74242D01*
X156492Y-74722D01*
G01X150075Y-83075D02*
X153575D01*
Y-74075D01*
X148575D01*
G01X160400Y-51042D02*
X155400D01*
Y-49708D01*
X155650Y-49282D01*
X155983Y-49015D01*
X156650Y-48908D01*
X157317Y-49015D01*
X157733Y-49335D01*
X157983Y-49708D01*
Y-51042D01*
G01Y-49708D02*
X160400Y-48908D01*
G01X156233Y-46588D02*
X155733Y-46268D01*
X155483Y-45895D01*
X155400Y-45468D01*
X155567Y-44935D01*
X155983Y-44562D01*
X156483Y-44455D01*
X156983Y-44508D01*
X157400Y-44722D01*
X158233Y-45788D01*
X158817Y-46268D01*
X159650Y-46588D01*
X160400Y-46695D01*
Y-44455D01*
G01X156233Y-42188D02*
X155733Y-41868D01*
X155483Y-41495D01*
X155400Y-41068D01*
X155567Y-40535D01*
X155983Y-40162D01*
X156483Y-40055D01*
X156983Y-40108D01*
X157400Y-40322D01*
X158233Y-41388D01*
X158817Y-41868D01*
X159650Y-42188D01*
X160400Y-42295D01*
Y-40055D01*
G01X149975Y-49875D02*
X153475D01*
Y-40875D01*
X148475D01*
G01X157858Y127575D02*
X158175Y127075D01*
X158555Y126742D01*
X158998Y126575D01*
X159505Y126742D01*
X159885Y127075D01*
X160265Y127575D01*
X160392Y128242D01*
Y131575D01*
G01X164225Y126575D02*
Y131575D01*
X163465Y130575D01*
G01Y126575D02*
X164985D01*
G01X167932Y127575D02*
X168312Y126992D01*
X168818Y126658D01*
X169388Y126575D01*
X169895Y126658D01*
X170402Y127075D01*
X170718Y127575D01*
X170782Y128075D01*
X170655Y128658D01*
X170212Y129075D01*
X169768Y129242D01*
X169198D01*
G01X169768D02*
X170148Y129492D01*
X170465Y129908D01*
X170592Y130408D01*
X170465Y130908D01*
X170148Y131325D01*
X169578Y131575D01*
X169008Y131492D01*
X168438Y131158D01*
G01X180650Y-55667D02*
X175650D01*
Y-54333D01*
X175900Y-53907D01*
X176233Y-53640D01*
X176900Y-53533D01*
X177567Y-53640D01*
X177983Y-53960D01*
X178233Y-54333D01*
Y-55667D01*
G01Y-54333D02*
X180650Y-53533D01*
G01Y-50200D02*
X175650D01*
X176650Y-50840D01*
G01X180650D02*
Y-49560D01*
G01Y-45800D02*
X175650D01*
X176650Y-46440D01*
G01X180650D02*
Y-45160D01*
G01X187425Y-45925D02*
X182425D01*
Y-54925D01*
X185925D01*
G01X180600Y-41092D02*
X175600D01*
Y-39758D01*
X175850Y-39332D01*
X176183Y-39065D01*
X176850Y-38958D01*
X177517Y-39065D01*
X177933Y-39385D01*
X178183Y-39758D01*
Y-41092D01*
G01Y-39758D02*
X180600Y-38958D01*
G01Y-35625D02*
X175600D01*
X176600Y-36265D01*
G01X180600D02*
Y-34985D01*
G01X175600Y-31225D02*
X175767Y-31652D01*
X176183Y-31972D01*
X176683Y-32185D01*
X177350Y-32345D01*
X178100Y-32398D01*
X178850Y-32345D01*
X179517Y-32185D01*
X180017Y-31972D01*
X180433Y-31652D01*
X180600Y-31225D01*
X180433Y-30798D01*
X180017Y-30478D01*
X179517Y-30265D01*
X178850Y-30105D01*
X178100Y-30052D01*
X177350Y-30105D01*
X176683Y-30265D01*
X176183Y-30478D01*
X175767Y-30798D01*
X175600Y-31225D01*
G01X187375Y-31325D02*
X182375D01*
Y-40325D01*
X185875D01*
G01X180625Y-10742D02*
X175625D01*
Y-9408D01*
X175875Y-8982D01*
X176208Y-8715D01*
X176875Y-8608D01*
X177542Y-8715D01*
X177958Y-9035D01*
X178208Y-9408D01*
Y-10742D01*
G01Y-9408D02*
X180625Y-8608D01*
G01Y-5275D02*
X180542Y-4902D01*
X180292Y-4475D01*
X179875Y-4208D01*
X179292Y-4102D01*
X178708Y-4208D01*
X178208Y-4528D01*
X177958Y-5008D01*
Y-5542D01*
X177792Y-5862D01*
X177375Y-6128D01*
X176792Y-6235D01*
X176208Y-6075D01*
X175792Y-5702D01*
X175625Y-5275D01*
X175792Y-4848D01*
X176208Y-4475D01*
X176792Y-4315D01*
X177375Y-4422D01*
X177792Y-4688D01*
X177958Y-5008D01*
Y-5542D01*
X178208Y-6022D01*
X178708Y-6342D01*
X179292Y-6448D01*
X179875Y-6342D01*
X180292Y-6075D01*
X180542Y-5648D01*
X180625Y-5275D01*
G01X187500Y-2050D02*
X182500D01*
Y-11050D01*
X186000D01*
G01X180875Y-24267D02*
X175875D01*
Y-22933D01*
X176125Y-22507D01*
X176458Y-22240D01*
X177125Y-22133D01*
X177792Y-22240D01*
X178208Y-22560D01*
X178458Y-22933D01*
Y-24267D01*
G01Y-22933D02*
X180875Y-22133D01*
G01X180292Y-19707D02*
X180708Y-19333D01*
X180875Y-18907D01*
X180708Y-18480D01*
X180208Y-18107D01*
X179458Y-17840D01*
X178708Y-17733D01*
X177792D01*
X177042Y-17840D01*
X176375Y-18107D01*
X176042Y-18427D01*
X175875Y-18800D01*
X176042Y-19227D01*
X176375Y-19547D01*
X176875Y-19760D01*
X177542Y-19867D01*
X178125Y-19760D01*
X178708Y-19493D01*
X179042Y-19173D01*
X179125Y-18800D01*
X178958Y-18373D01*
X178542Y-18053D01*
X177792Y-17733D01*
G01X187500Y-16900D02*
X182500D01*
Y-25900D01*
X186000D01*
G01X179775Y4433D02*
X174775D01*
Y5767D01*
X175025Y6193D01*
X175358Y6460D01*
X176025Y6567D01*
X176692Y6460D01*
X177108Y6140D01*
X177358Y5767D01*
Y4433D01*
G01Y5767D02*
X179775Y6567D01*
G01X178775Y8727D02*
X179358Y9047D01*
X179692Y9473D01*
X179775Y9953D01*
X179692Y10380D01*
X179275Y10807D01*
X178775Y11073D01*
X178275Y11127D01*
X177692Y11020D01*
X177275Y10647D01*
X177108Y10273D01*
Y9793D01*
G01Y10273D02*
X176858Y10593D01*
X176442Y10860D01*
X175942Y10967D01*
X175442Y10860D01*
X175025Y10593D01*
X174775Y10113D01*
X174858Y9633D01*
X175192Y9153D01*
G01X179192Y13393D02*
X179608Y13767D01*
X179775Y14193D01*
X179608Y14620D01*
X179108Y14993D01*
X178358Y15260D01*
X177608Y15367D01*
X176692D01*
X175942Y15260D01*
X175275Y14993D01*
X174942Y14673D01*
X174775Y14300D01*
X174942Y13873D01*
X175275Y13553D01*
X175775Y13340D01*
X176442Y13233D01*
X177025Y13340D01*
X177608Y13607D01*
X177942Y13927D01*
X178025Y14300D01*
X177858Y14727D01*
X177442Y15047D01*
X176692Y15367D01*
G01X187600Y12925D02*
X182600D01*
Y3925D01*
X186100D01*
G01X195925Y-54925D02*
X199425D01*
Y-45925D01*
X194425D01*
G01X195875Y-40325D02*
X199375D01*
Y-31325D01*
X194375D01*
G01X196000Y-11050D02*
X199500D01*
Y-2050D01*
X194500D01*
G01X196000Y-25900D02*
X199500D01*
Y-16900D01*
X194500D01*
G01X216850Y4075D02*
X221850D01*
Y13075D01*
X218350D01*
G01X208350D02*
X204850D01*
Y4075D01*
X209850D01*
G01X196100Y3925D02*
X199600D01*
Y12925D01*
X194600D01*
G01X220058Y-148300D02*
X220375Y-148800D01*
X220755Y-149133D01*
X221198Y-149300D01*
X221705Y-149133D01*
X222085Y-148800D01*
X222465Y-148300D01*
X222592Y-147633D01*
Y-144300D01*
G01X226425Y-149300D02*
Y-144300D01*
X225665Y-145300D01*
G01Y-149300D02*
X227185D01*
G01X231525Y-144300D02*
X231018Y-144467D01*
X230638Y-144883D01*
X230385Y-145383D01*
X230195Y-146050D01*
X230132Y-146800D01*
X230195Y-147550D01*
X230385Y-148217D01*
X230638Y-148717D01*
X231018Y-149133D01*
X231525Y-149300D01*
X232032Y-149133D01*
X232412Y-148717D01*
X232665Y-148217D01*
X232855Y-147550D01*
X232918Y-146800D01*
X232855Y-146050D01*
X232665Y-145383D01*
X232412Y-144883D01*
X232032Y-144467D01*
X231525Y-144300D01*
G01X273525Y-147000D02*
Y-136000D01*
X233525D01*
Y-147000D01*
X273525D01*
G01X229225Y3352D02*
X224225D01*
Y4418D01*
X224475Y4845D01*
X224808Y5165D01*
X225308Y5432D01*
X225892Y5645D01*
X226725Y5698D01*
X227558Y5645D01*
X228142Y5432D01*
X228642Y5165D01*
X228975Y4845D01*
X229225Y4418D01*
Y3352D01*
G01Y8925D02*
X224225D01*
X225225Y8285D01*
G01X229225D02*
Y9565D01*
G01X228225Y12152D02*
X228808Y12472D01*
X229142Y12898D01*
X229225Y13378D01*
X229142Y13805D01*
X228725Y14232D01*
X228225Y14498D01*
X227725Y14552D01*
X227142Y14445D01*
X226725Y14072D01*
X226558Y13698D01*
Y13218D01*
G01Y13698D02*
X226308Y14018D01*
X225892Y14285D01*
X225392Y14392D01*
X224892Y14285D01*
X224475Y14018D01*
X224225Y13538D01*
X224308Y13058D01*
X224642Y12578D01*
G01X241792Y36673D02*
X241542Y36353D01*
X241375Y35980D01*
Y35553D01*
X241625Y35073D01*
X242042Y34700D01*
X242542Y34433D01*
X243375Y34220D01*
X244125Y34167D01*
X244875Y34273D01*
X245375Y34433D01*
X245875Y34753D01*
X246208Y35127D01*
X246375Y35500D01*
Y35873D01*
X246208Y36247D01*
X245958Y36567D01*
X245625Y36833D01*
G01X245375Y38727D02*
X245958Y39047D01*
X246292Y39473D01*
X246375Y39953D01*
X246292Y40380D01*
X245875Y40807D01*
X245375Y41073D01*
X244875Y41127D01*
X244292Y41020D01*
X243875Y40647D01*
X243708Y40273D01*
Y39793D01*
G01Y40273D02*
X243458Y40593D01*
X243042Y40860D01*
X242542Y40967D01*
X242042Y40860D01*
X241625Y40593D01*
X241375Y40113D01*
X241458Y39633D01*
X241792Y39153D01*
G01X246375Y44193D02*
X245292Y44300D01*
X244375Y44460D01*
X243542Y44673D01*
X242625Y44940D01*
X241375Y45367D01*
Y43233D01*
G01X227875Y41000D02*
Y36000D01*
X236875D01*
Y39500D01*
G01X242692Y65873D02*
X242442Y65553D01*
X242275Y65180D01*
Y64753D01*
X242525Y64273D01*
X242942Y63900D01*
X243442Y63633D01*
X244275Y63420D01*
X245025Y63367D01*
X245775Y63473D01*
X246275Y63633D01*
X246775Y63953D01*
X247108Y64327D01*
X247275Y64700D01*
Y65073D01*
X247108Y65447D01*
X246858Y65767D01*
X246525Y66033D01*
G01X247275Y69100D02*
X242275D01*
X243275Y68460D01*
G01X247275D02*
Y69740D01*
G01X242275Y73500D02*
X242442Y73073D01*
X242858Y72753D01*
X243358Y72540D01*
X244025Y72380D01*
X244775Y72327D01*
X245525Y72380D01*
X246192Y72540D01*
X246692Y72753D01*
X247108Y73073D01*
X247275Y73500D01*
X247108Y73927D01*
X246692Y74247D01*
X246192Y74460D01*
X245525Y74620D01*
X244775Y74673D01*
X244025Y74620D01*
X243358Y74460D01*
X242858Y74247D01*
X242442Y73927D01*
X242275Y73500D01*
G01X228775Y70200D02*
Y65200D01*
X237775D01*
Y68700D01*
G01X236875Y49500D02*
Y53000D01*
X227875D01*
Y48000D01*
G01X230275Y99800D02*
Y94800D01*
X239275D01*
Y98300D01*
G01X237775Y78700D02*
Y82200D01*
X228775D01*
Y77200D01*
G01X239275Y108300D02*
Y111800D01*
X230275D01*
Y106800D01*
G01X261906Y-107250D02*
Y-102250D01*
X263489D01*
X263996Y-102500D01*
X264312Y-102833D01*
X264439Y-103500D01*
X264312Y-104167D01*
X263932Y-104583D01*
X263489Y-104833D01*
X261906D01*
G01X263489D02*
X264439Y-107250D01*
G01X268270Y-102250D02*
Y-107250D01*
G01X266814Y-102250D02*
X269727D01*
G01X274128Y-107250D02*
Y-102250D01*
X271786Y-105833D01*
X274951D01*
G01X249175Y-117388D02*
X260175D01*
Y-97112D01*
X249175D01*
Y-117388D01*
G01X261906Y-78400D02*
Y-73400D01*
X263489D01*
X263996Y-73650D01*
X264312Y-73983D01*
X264439Y-74650D01*
X264312Y-75317D01*
X263932Y-75733D01*
X263489Y-75983D01*
X261906D01*
G01X263489D02*
X264439Y-78400D01*
G01X268270Y-73400D02*
Y-78400D01*
G01X266814Y-73400D02*
X269727D01*
G01X271976Y-77400D02*
X272355Y-77983D01*
X272862Y-78317D01*
X273432Y-78400D01*
X273938Y-78317D01*
X274445Y-77900D01*
X274761Y-77400D01*
X274825Y-76900D01*
X274698Y-76317D01*
X274255Y-75900D01*
X273812Y-75733D01*
X273242D01*
G01X273812D02*
X274192Y-75483D01*
X274508Y-75067D01*
X274635Y-74567D01*
X274508Y-74067D01*
X274192Y-73650D01*
X273622Y-73400D01*
X273052Y-73483D01*
X272482Y-73817D01*
G01X249175Y-88538D02*
X260175D01*
Y-68262D01*
X249175D01*
Y-88538D01*
G01Y-59588D02*
X260175D01*
Y-39312D01*
X249175D01*
Y-59588D01*
G01X249050Y-30638D02*
X260050D01*
Y-10362D01*
X249050D01*
Y-30638D01*
G01X261906Y-49450D02*
Y-44450D01*
X263489D01*
X263996Y-44700D01*
X264312Y-45033D01*
X264439Y-45700D01*
X264312Y-46367D01*
X263932Y-46783D01*
X263489Y-47033D01*
X261906D01*
G01X263489D02*
X264439Y-49450D01*
G01X268270Y-44450D02*
Y-49450D01*
G01X266814Y-44450D02*
X269727D01*
G01X272165Y-45283D02*
X272545Y-44783D01*
X272989Y-44533D01*
X273495Y-44450D01*
X274128Y-44617D01*
X274572Y-45033D01*
X274698Y-45533D01*
X274635Y-46033D01*
X274382Y-46450D01*
X273115Y-47283D01*
X272545Y-47867D01*
X272165Y-48700D01*
X272039Y-49450D01*
X274698D01*
G01X261781Y-20500D02*
Y-15500D01*
X263364D01*
X263871Y-15750D01*
X264187Y-16083D01*
X264314Y-16750D01*
X264187Y-17417D01*
X263807Y-17833D01*
X263364Y-18083D01*
X261781D01*
G01X263364D02*
X264314Y-20500D01*
G01X268145Y-15500D02*
Y-20500D01*
G01X266689Y-15500D02*
X269602D01*
G01X273243Y-20500D02*
Y-15500D01*
X272484Y-16500D01*
G01Y-20500D02*
X274003D01*
G01X263931Y37550D02*
X264248Y37050D01*
X264628Y36717D01*
X265071Y36550D01*
X265577Y36717D01*
X265957Y37050D01*
X266337Y37550D01*
X266464Y38217D01*
Y41550D01*
G01X271055Y36550D02*
Y41550D01*
X268713Y37967D01*
X271878D01*
G01X251200Y26412D02*
X262200D01*
Y46688D01*
X251200D01*
Y26412D01*
G01X263981Y70150D02*
X264298Y69650D01*
X264678Y69317D01*
X265121Y69150D01*
X265627Y69317D01*
X266007Y69650D01*
X266387Y70150D01*
X266514Y70817D01*
Y74150D01*
G01X268953Y70150D02*
X269332Y69567D01*
X269839Y69233D01*
X270409Y69150D01*
X270915Y69233D01*
X271422Y69650D01*
X271738Y70150D01*
X271802Y70650D01*
X271675Y71233D01*
X271232Y71650D01*
X270789Y71817D01*
X270219D01*
G01X270789D02*
X271169Y72067D01*
X271485Y72483D01*
X271612Y72983D01*
X271485Y73483D01*
X271169Y73900D01*
X270599Y74150D01*
X270029Y74067D01*
X269459Y73733D01*
G01X251250Y59012D02*
X262250D01*
Y79288D01*
X251250D01*
Y59012D01*
G01X244192Y95473D02*
X243942Y95153D01*
X243775Y94780D01*
Y94353D01*
X244025Y93873D01*
X244442Y93500D01*
X244942Y93233D01*
X245775Y93020D01*
X246525Y92967D01*
X247275Y93073D01*
X247775Y93233D01*
X248275Y93553D01*
X248608Y93927D01*
X248775Y94300D01*
Y94673D01*
X248608Y95047D01*
X248358Y95367D01*
X248025Y95633D01*
G01X248192Y97793D02*
X248608Y98167D01*
X248775Y98593D01*
X248608Y99020D01*
X248108Y99393D01*
X247358Y99660D01*
X246608Y99767D01*
X245692D01*
X244942Y99660D01*
X244275Y99393D01*
X243942Y99073D01*
X243775Y98700D01*
X243942Y98273D01*
X244275Y97953D01*
X244775Y97740D01*
X245442Y97633D01*
X246025Y97740D01*
X246608Y98007D01*
X246942Y98327D01*
X247025Y98700D01*
X246858Y99127D01*
X246442Y99447D01*
X245692Y99767D01*
G01X250425Y92087D02*
X261425D01*
Y112363D01*
X250425D01*
Y92087D01*
G01X263156Y103225D02*
X263473Y102725D01*
X263853Y102392D01*
X264296Y102225D01*
X264802Y102392D01*
X265182Y102725D01*
X265562Y103225D01*
X265689Y103892D01*
Y107225D01*
G01X268317Y106392D02*
X268697Y106892D01*
X269141Y107142D01*
X269647Y107225D01*
X270280Y107058D01*
X270724Y106642D01*
X270850Y106142D01*
X270787Y105642D01*
X270534Y105225D01*
X269267Y104392D01*
X268697Y103808D01*
X268317Y102975D01*
X268191Y102225D01*
X270850D01*
G54D11*
G01X-220075Y-109950D02*
Y-100450D01*
X-277575D01*
Y-136450D01*
X-244075D01*
G01X-220075Y-126950D02*
Y-136450D01*
X-226575D01*
G54D12*
G01X-244100Y-83700D02*
Y-57300D01*
X-258700D01*
Y-83700D01*
X-244100D01*
G01X-191025Y-80625D02*
X-178825D01*
G01X-186125Y-68425D02*
G03X-183725Y-68446I1200J0D01*
G01X-178825Y-68425D02*
X-191025D01*
G01X-189455Y-12225D02*
X-192495D01*
G01X-187675Y-19465D02*
Y-16785D01*
G01X-192495Y-24025D02*
X-189455D01*
G01X-141490Y46340D02*
G03Y45360I1090J-490D01*
G01X-140400Y44660D02*
Y47040D01*
G01X-147730Y42400D02*
X-145070D01*
G01X-152400Y47040D02*
Y44660D01*
G01X43250Y86800D02*
Y85500D01*
X57450D01*
Y86800D01*
G01X44250Y108950D02*
Y107650D01*
X58450D01*
Y108950D01*
G01X57450Y98400D02*
Y99700D01*
X43250D01*
Y98400D01*
G01X58450Y120550D02*
Y121850D01*
X44250D01*
Y120550D01*
G01X45775Y131600D02*
Y130300D01*
X59975D01*
Y131600D01*
G01Y143200D02*
Y144500D01*
X45775D01*
Y143200D01*
G54D13*
G01X-231417Y-120442D02*
X-231017Y-120642D01*
X-230550Y-120775D01*
X-230017D01*
X-229417Y-120575D01*
X-228950Y-120242D01*
X-228617Y-119842D01*
X-228350Y-119175D01*
X-228283Y-118575D01*
X-228417Y-117975D01*
X-228617Y-117575D01*
X-229017Y-117175D01*
X-229483Y-116908D01*
X-229950Y-116775D01*
X-230417D01*
X-230883Y-116908D01*
X-231283Y-117108D01*
X-231617Y-117375D01*
G01X-233417Y-116775D02*
Y-120775D01*
X-236483Y-116775D01*
Y-120775D01*
G01X-238483Y-117575D02*
X-238883Y-117108D01*
X-239417Y-116842D01*
X-240017Y-116775D01*
X-240550Y-116842D01*
X-241083Y-117175D01*
X-241417Y-117575D01*
X-241483Y-117975D01*
X-241350Y-118442D01*
X-240883Y-118775D01*
X-240417Y-118908D01*
X-239817D01*
G01X-240417D02*
X-240817Y-119108D01*
X-241150Y-119442D01*
X-241283Y-119842D01*
X-241150Y-120242D01*
X-240817Y-120575D01*
X-240217Y-120775D01*
X-239617Y-120708D01*
X-239017Y-120442D01*
G54D14*
G01X-241785Y87335D02*
X-273675D01*
G01D02*
Y113715D01*
G01D02*
X-241785D01*
G01D02*
Y87335D01*
G54D15*
G01X-4835Y95100D02*
Y82900D01*
X-6015D01*
Y95100D01*
X-4835D01*
G01X-4460Y118900D02*
Y106700D01*
X-5640D01*
Y118900D01*
X-4460D01*
G01X-4335Y143075D02*
Y130875D01*
X-5515D01*
Y143075D01*
X-4335D01*
M02*
