G04 ================== begin FILE IDENTIFICATION RECORD ==================*
G04 Layout Name:  megaHeatv2.brd*
G04 Film Name:    Silkscreen_Bottom*
G04 File Format:  Gerber RS274X*
G04 File Origin:  Cadence Allegro 16.6-P004*
G04 Origin Date:  Sun Mar 29 22:17:26 2015*
G04 *
G04 Layer:  USER PART NUMBER/SILKSCREEN_BOTTOM*
G04 Layer:  TOLERANCE/SILKSCREEN_BOTTOM*
G04 Layer:  REF DES/SILKSCREEN_BOTTOM*
G04 Layer:  PACKAGE GEOMETRY/SILKSCREEN_BOTTOM*
G04 Layer:  DEVICE TYPE/SILKSCREEN_BOTTOM*
G04 Layer:  COMPONENT VALUE/SILKSCREEN_BOTTOM*
G04 Layer:  BOARD GEOMETRY/SILKSCREEN_BOTTOM*
G04 *
G04 Offset:    (0.00 0.00)*
G04 Mirror:    No*
G04 Mode:      Positive*
G04 Rotation:  0*
G04 FullContactRelief:  No*
G04 UndefLineWidth:     10.00*
G04 ================== end FILE IDENTIFICATION RECORD ====================*
%FSLAX25Y25*MOIN*%
%IR0*IPPOS*OFA0.00000B0.00000*MIA0B0*SFA1.00000B1.00000*%
%ADD10C,.01*%
G75*
%LPD*%
G75*
G36*
G01X-206500Y-40375D02*
X-274000D01*
Y24625D01*
X-206500D01*
Y-40375D01*
G37*
G36*
G01X202000Y25950D02*
X154500D01*
Y115950D01*
X202000D01*
Y25950D01*
G37*
G54D10*
G01X-241917Y-7083D02*
X-241667Y-7462D01*
X-241500Y-7906D01*
Y-8412D01*
X-241750Y-8982D01*
X-242167Y-9425D01*
X-242667Y-9742D01*
X-243500Y-9995D01*
X-244250Y-10058D01*
X-245000Y-9932D01*
X-245500Y-9742D01*
X-246000Y-9362D01*
X-246333Y-8919D01*
X-246500Y-8476D01*
Y-8032D01*
X-246333Y-7589D01*
X-246083Y-7209D01*
X-245750Y-6893D01*
G01X-246500Y-4834D02*
X-241500D01*
X-246500Y-1921D01*
X-241500D01*
G01X-246500Y1720D02*
X-241500D01*
X-242500Y961D01*
G01X-246500D02*
Y2480D01*
G01X-78608Y24225D02*
X-78875Y23725D01*
X-79195Y23392D01*
X-79568Y23225D01*
X-79995Y23392D01*
X-80315Y23725D01*
X-80635Y24225D01*
X-80742Y24892D01*
Y28225D01*
G01X-84075Y23225D02*
X-84448Y23308D01*
X-84875Y23558D01*
X-85142Y23975D01*
X-85248Y24558D01*
X-85142Y25142D01*
X-84822Y25642D01*
X-84342Y25892D01*
X-83808D01*
X-83488Y26058D01*
X-83222Y26475D01*
X-83115Y27058D01*
X-83275Y27642D01*
X-83648Y28058D01*
X-84075Y28225D01*
X-84502Y28058D01*
X-84875Y27642D01*
X-85035Y27058D01*
X-84928Y26475D01*
X-84662Y26058D01*
X-84342Y25892D01*
X-83808D01*
X-83328Y25642D01*
X-83008Y25142D01*
X-82902Y24558D01*
X-83008Y23975D01*
X-83275Y23558D01*
X-83702Y23308D01*
X-84075Y23225D01*
G01X-85175Y39725D02*
X-82675D01*
Y34725D01*
X-83675D01*
G01X-93675D02*
X-94675D01*
Y39725D01*
X-92175D01*
G01X174643Y-83625D02*
Y-87208D01*
X174390Y-87958D01*
X173883Y-88458D01*
X173250Y-88625D01*
X172617Y-88458D01*
X172110Y-87958D01*
X171857Y-87208D01*
Y-83625D01*
G01X168150Y-88625D02*
Y-83625D01*
X168910Y-84625D01*
G01Y-88625D02*
X167390D01*
G01X162290D02*
Y-83625D01*
X164633Y-87208D01*
X161467D01*
G01X168033Y80943D02*
X167783Y80690D01*
X167367Y80500D01*
X166783Y80373D01*
X166283Y80500D01*
X165950Y80753D01*
X165700Y81197D01*
Y82907D01*
X170700D01*
Y80817D01*
X170367Y80373D01*
X169867Y80120D01*
X169283Y79993D01*
X168700Y80120D01*
X168200Y80500D01*
X168033Y80943D01*
Y82907D01*
G01X165700Y76350D02*
X170700D01*
G01X165700Y77807D02*
Y74893D01*
G01X170700Y71250D02*
X165700D01*
X166700Y72010D01*
G01X170700D02*
Y70490D01*
G01X192150Y-108625D02*
X172150D01*
Y-68625D01*
X192150D01*
Y-108625D01*
G01X185700Y101950D02*
Y39950D01*
X173300D01*
Y101950D01*
X185700D01*
M02*
